<?xml version="1.0" encoding="UTF-8"?>
<svg version="1.1" xmlns="http://www.w3.org/2000/svg" width="200" height="200">
<path d="M0 0 C66 0 132 0 200 0 C200 66 200 132 200 200 C134 200 68 200 0 200 C0 134 0 68 0 0 Z " fill="#212121" transform="translate(0,0)"/>
<path d="M0 0 C0 20.13 0 40.26 0 61 C-1.32 61 -2.64 61 -4 61 C-4 61.66 -4 62.32 -4 63 C-2.35 63 -0.7 63 1 63 C1 62.34 1 61.68 1 61 C1.99 61 2.98 61 4 61 C4 61.66 4 62.32 4 63 C5.65 63 7.3 63 9 63 C9 63.66 9 64.32 9 65 C10.32 65 11.64 65 13 65 C13 65.66 13 66.32 13 67 C14.32 67 15.64 67 17 67 C17 67.66 17 68.32 17 69 C18.32 69 19.64 69 21 69 C21 69.66 21 70.32 21 71 C22.32 71 23.64 71 25 71 C25 71.66 25 72.32 25 73 C26.32 73 27.64 73 29 73 C29 73.66 29 74.32 29 75 C30.32 75 31.64 75 33 75 C33 75.66 33 76.32 33 77 C34.32 77 35.64 77 37 77 C37 77.66 37 78.32 37 79 C38.32 79 39.64 79 41 79 C41 79.66 41 80.32 41 81 C42.65 81 44.3 81 46 81 C46 81.66 46 82.32 46 83 C47.32 83 48.64 83 50 83 C50 83.66 50 84.32 50 85 C51.32 85 52.64 85 54 85 C54 85.66 54 86.32 54 87 C55.32 87 56.64 87 58 87 C58 87.99 58 88.98 58 90 C59.32 90 60.64 90 62 90 C62 90.66 62 91.32 62 92 C62.66 92 63.32 92 64 92 C64 93.98 64 95.96 64 98 C63.34 98 62.68 98 62 98 C62 98.66 62 99.32 62 100 C60.68 100 59.36 100 58 100 C58 100.66 58 101.32 58 102 C56.68 102 55.36 102 54 102 C54 102.66 54 103.32 54 104 C52.68 104 51.36 104 50 104 C50 104.66 50 105.32 50 106 C48.35 106 46.7 106 45 106 C45 106.66 45 107.32 45 108 C43.68 108 42.36 108 41 108 C41 108.66 41 109.32 41 110 C39.68 110 38.36 110 37 110 C37 110.66 37 111.32 37 112 C35.68 112 34.36 112 33 112 C33 112.66 33 113.32 33 114 C31.68 114 30.36 114 29 114 C29 114.66 29 115.32 29 116 C27.68 116 26.36 116 25 116 C25 116.66 25 117.32 25 118 C23.68 118 22.36 118 21 118 C21 118.66 21 119.32 21 120 C19.68 120 18.36 120 17 120 C17 120.66 17 121.32 17 122 C15.68 122 14.36 122 13 122 C13 122.66 13 123.32 13 124 C11.35 124 9.7 124 8 124 C8 124.66 8 125.32 8 126 C6.68 126 5.36 126 4 126 C4 126.66 4 127.32 4 128 C2.68 128 1.36 128 0 128 C0 128.66 0 129.32 0 130 C-1.32 130 -2.64 130 -4 130 C-4 130.66 -4 131.32 -4 132 C-5.32 132 -6.64 132 -8 132 C-8 132.66 -8 133.32 -8 134 C-9.32 134 -10.64 134 -12 134 C-12 134.99 -12 135.98 -12 137 C-13.32 137 -14.64 137 -16 137 C-16 137.66 -16 138.32 -16 139 C-17.32 139 -18.64 139 -20 139 C-20 139.66 -20 140.32 -20 141 C-21.32 141 -22.64 141 -24 141 C-24 138.36 -24 135.72 -24 133 C-25.32 133 -26.64 133 -28 133 C-28 132.34 -28 131.68 -28 131 C-28.66 130.896875 -29.32 130.79375 -30 130.6875 C-33.83841009 129.80786436 -37.33096691 128.43030104 -41 127 C-41 126.34 -41 125.68 -41 125 C-42.32 125 -43.64 125 -45 125 C-45 124.34 -45 123.68 -45 123 C-46.32 123 -47.64 123 -49 123 C-49 122.01 -49 121.02 -49 120 C-50.32 120 -51.64 120 -53 120 C-53 119.34 -53 118.68 -53 118 C-54.32 118 -55.64 118 -57 118 C-57 117.34 -57 116.68 -57 116 C-58.32 116 -59.64 116 -61 116 C-61 115.34 -61 114.68 -61 114 C-62.32 114 -63.64 114 -65 114 C-65 113.34 -65 112.68 -65 112 C-66.32 112 -67.64 112 -69 112 C-69 111.34 -69 110.68 -69 110 C-70.32 110 -71.64 110 -73 110 C-73 109.34 -73 108.68 -73 108 C-74.65 108 -76.3 108 -78 108 C-78 107.34 -78 106.68 -78 106 C-79.32 106 -80.64 106 -82 106 C-81.67 104.68 -81.34 103.36 -81 102 C-79.68 102 -78.36 102 -77 102 C-77 101.34 -77 100.68 -77 100 C-75.68 100 -74.36 100 -73 100 C-73 99.34 -73 98.68 -73 98 C-71.68 98 -70.36 98 -69 98 C-69 97.34 -69 96.68 -69 96 C-70.65 96 -72.3 96 -74 96 C-74 96.66 -74 97.32 -74 98 C-75.32 98 -76.64 98 -78 98 C-78 98.66 -78 99.32 -78 100 C-79.32 100 -80.64 100 -82 100 C-82 100.66 -82 101.32 -82 102 C-83.98 102 -85.96 102 -88 102 C-88 83.52 -88 65.04 -88 46 C-88.66 46 -89.32 46 -90 46 C-90 44.68 -90 43.36 -90 42 C-88.68 42 -87.36 42 -86 42 C-86 41.34 -86 40.68 -86 40 C-84.68 40 -83.36 40 -82 40 C-82 39.34 -82 38.68 -82 38 C-80.68 38 -79.36 38 -78 38 C-78 37.34 -78 36.68 -78 36 C-76.35 36 -74.7 36 -73 36 C-73 35.34 -73 34.68 -73 34 C-71.68 34 -70.36 34 -69 34 C-69 33.34 -69 32.68 -69 32 C-67.68 32 -66.36 32 -65 32 C-65 31.34 -65 30.68 -65 30 C-63.68 30 -62.36 30 -61 30 C-61 29.34 -61 28.68 -61 28 C-59.68 28 -58.36 28 -57 28 C-57 27.34 -57 26.68 -57 26 C-55.68 26 -54.36 26 -53 26 C-53 25.34 -53 24.68 -53 24 C-51.68 24 -50.36 24 -49 24 C-49 23.34 -49 22.68 -49 22 C-47.68 22 -46.36 22 -45 22 C-45 21.34 -45 20.68 -45 20 C-43.35 20 -41.7 20 -40 20 C-40 19.34 -40 18.68 -40 18 C-38.68 18 -37.36 18 -36 18 C-36 17.34 -36 16.68 -36 16 C-34.68 16 -33.36 16 -32 16 C-32 15.34 -32 14.68 -32 14 C-30.68 14 -29.36 14 -28 14 C-28 13.34 -28 12.68 -28 12 C-26.68 12 -25.36 12 -24 12 C-24 11.01 -24 10.02 -24 9 C-22.68 9 -21.36 9 -20 9 C-20 8.34 -20 7.68 -20 7 C-18.68 7 -17.36 7 -16 7 C-16 6.34 -16 5.68 -16 5 C-14.68 5 -13.36 5 -12 5 C-12 4.34 -12 3.68 -12 3 C-10.68 3 -9.36 3 -8 3 C-8 2.34 -8 1.68 -8 1 C-5.23735711 0.40267181 -2.83967231 0 0 0 Z " fill="#798085" transform="translate(114,30)"/>
<path d="M0 0 C0 20.13 0 40.26 0 61 C-1.32 61 -2.64 61 -4 61 C-4 62.32 -4 63.64 -4 65 C-5.32 65 -6.64 65 -8 65 C-8 65.66 -8 66.32 -8 67 C-9.32 67 -10.64 67 -12 67 C-12 67.66 -12 68.32 -12 69 C-13.32 69 -14.64 69 -16 69 C-16 69.66 -16 70.32 -16 71 C-17.32 71 -18.64 71 -20 71 C-20 71.66 -20 72.32 -20 73 C-21.32 73 -22.64 73 -24 73 C-24 73.66 -24 74.32 -24 75 C-25.32 75 -26.64 75 -28 75 C-28 75.66 -28 76.32 -28 77 C-29.32 77 -30.64 77 -32 77 C-32 77.99 -32 78.98 -32 80 C-33.32 80 -34.64 80 -36 80 C-36 80.66 -36 81.32 -36 82 C-44.42857143 85.28571429 -44.42857143 85.28571429 -49 86 C-49 86.66 -49 87.32 -49 88 C-50.32 88 -51.64 88 -53 88 C-53 88.66 -53 89.32 -53 90 C-54.32 90 -55.64 90 -57 90 C-57 90.66 -57 91.32 -57 92 C-58.32 92 -59.64 92 -61 92 C-61 92.66 -61 93.32 -61 94 C-62.32 94 -63.64 94 -65 94 C-65 94.66 -65 95.32 -65 96 C-67.97 96 -70.94 96 -74 96 C-74 96.66 -74 97.32 -74 98 C-75.32 98 -76.64 98 -78 98 C-78 98.66 -78 99.32 -78 100 C-79.32 100 -80.64 100 -82 100 C-82 100.66 -82 101.32 -82 102 C-83.98 102 -85.96 102 -88 102 C-88 83.52 -88 65.04 -88 46 C-88.66 46 -89.32 46 -90 46 C-90 44.68 -90 43.36 -90 42 C-88.68 42 -87.36 42 -86 42 C-86 41.34 -86 40.68 -86 40 C-84.68 40 -83.36 40 -82 40 C-82 39.34 -82 38.68 -82 38 C-80.68 38 -79.36 38 -78 38 C-78 37.34 -78 36.68 -78 36 C-76.35 36 -74.7 36 -73 36 C-73 35.34 -73 34.68 -73 34 C-71.68 34 -70.36 34 -69 34 C-69 33.34 -69 32.68 -69 32 C-67.68 32 -66.36 32 -65 32 C-65 31.34 -65 30.68 -65 30 C-63.68 30 -62.36 30 -61 30 C-61 29.34 -61 28.68 -61 28 C-59.68 28 -58.36 28 -57 28 C-57 27.34 -57 26.68 -57 26 C-55.68 26 -54.36 26 -53 26 C-53 25.34 -53 24.68 -53 24 C-51.68 24 -50.36 24 -49 24 C-49 23.34 -49 22.68 -49 22 C-47.68 22 -46.36 22 -45 22 C-45 21.34 -45 20.68 -45 20 C-43.35 20 -41.7 20 -40 20 C-40 19.34 -40 18.68 -40 18 C-38.68 18 -37.36 18 -36 18 C-36 17.34 -36 16.68 -36 16 C-34.68 16 -33.36 16 -32 16 C-32 15.34 -32 14.68 -32 14 C-30.68 14 -29.36 14 -28 14 C-28 13.34 -28 12.68 -28 12 C-26.68 12 -25.36 12 -24 12 C-24 11.01 -24 10.02 -24 9 C-22.68 9 -21.36 9 -20 9 C-20 8.34 -20 7.68 -20 7 C-18.68 7 -17.36 7 -16 7 C-16 6.34 -16 5.68 -16 5 C-14.68 5 -13.36 5 -12 5 C-12 4.34 -12 3.68 -12 3 C-10.68 3 -9.36 3 -8 3 C-8 2.34 -8 1.68 -8 1 C-5.23735711 0.40267181 -2.83967231 0 0 0 Z " fill="#747B7F" transform="translate(114,30)"/>
<path d="M0 0 C1.32 0 2.64 0 4 0 C4 0.66 4 1.32 4 2 C4.66 2 5.32 2 6 2 C6 14.87 6 27.74 6 41 C5.34 41 4.68 41 4 41 C4 41.66 4 42.32 4 43 C2.68 43 1.36 43 0 43 C0 43.66 0 44.32 0 45 C-1.32 45 -2.64 45 -4 45 C-4 45.66 -4 46.32 -4 47 C-5.32 47 -6.64 47 -8 47 C-8 47.66 -8 48.32 -8 49 C-9.32 49 -10.64 49 -12 49 C-12 49.66 -12 50.32 -12 51 C-13.32 51 -14.64 51 -16 51 C-16 51.66 -16 52.32 -16 53 C-17.32 53 -18.64 53 -20 53 C-20 53.66 -20 54.32 -20 55 C-21.32 55 -22.64 55 -24 55 C-24 55.66 -24 56.32 -24 57 C-25.65 57 -27.3 57 -29 57 C-29 57.66 -29 58.32 -29 59 C-30.32 59 -31.64 59 -33 59 C-33 59.66 -33 60.32 -33 61 C-34.32 61 -35.64 61 -37 61 C-37 61.66 -37 62.32 -37 63 C-38.32 63 -39.64 63 -41 63 C-41 63.66 -41 64.32 -41 65 C-42.32 65 -43.64 65 -45 65 C-45 65.66 -45 66.32 -45 67 C-46.32 67 -47.64 67 -49 67 C-49 67.66 -49 68.32 -49 69 C-50.32 69 -51.64 69 -53 69 C-53 69.66 -53 70.32 -53 71 C-54.32 71 -55.64 71 -57 71 C-57 71.99 -57 72.98 -57 74 C-58.32 74 -59.64 74 -61 74 C-61 74.66 -61 75.32 -61 76 C-62.32 76 -63.64 76 -65 76 C-65 76.66 -65 77.32 -65 78 C-66.65 78 -68.3 78 -70 78 C-70 77.34 -70 76.68 -70 76 C-70.66 76 -71.32 76 -72 76 C-72 62.8 -72 49.6 -72 36 C-71.34 36 -70.68 36 -70 36 C-70 35.34 -70 34.68 -70 34 C-68.68 34 -67.36 34 -66 34 C-66 33.34 -66 32.68 -66 32 C-64.68 32 -63.36 32 -62 32 C-62 31.34 -62 30.68 -62 30 C-60.35 30 -58.7 30 -57 30 C-57 29.34 -57 28.68 -57 28 C-55.68 28 -54.36 28 -53 28 C-53 27.34 -53 26.68 -53 26 C-51.68 26 -50.36 26 -49 26 C-49 25.34 -49 24.68 -49 24 C-47.68 24 -46.36 24 -45 24 C-45 23.34 -45 22.68 -45 22 C-43.68 22 -42.36 22 -41 22 C-41 21.34 -41 20.68 -41 20 C-39.68 20 -38.36 20 -37 20 C-37 19.34 -37 18.68 -37 18 C-35.68 18 -34.36 18 -33 18 C-33 17.34 -33 16.68 -33 16 C-31.68 16 -30.36 16 -29 16 C-29 16.66 -29 17.32 -29 18 C-29.66 18 -30.32 18 -31 18 C-31 19.32 -31 20.64 -31 22 C-31.66 22 -32.32 22 -33 22 C-33 23.32 -33 24.64 -33 26 C-33.66 26 -34.32 26 -35 26 C-35 27.32 -35 28.64 -35 30 C-35.66 30 -36.32 30 -37 30 C-37 31.32 -37 32.64 -37 34 C-37.66 34 -38.32 34 -39 34 C-39 35.32 -39 36.64 -39 38 C-39.66 38 -40.32 38 -41 38 C-41 39.65 -41 41.3 -41 43 C-41.66 43 -42.32 43 -43 43 C-43 44.32 -43 45.64 -43 47 C-43.66 47 -44.32 47 -45 47 C-45 48.32 -45 49.64 -45 51 C-45.66 51 -46.32 51 -47 51 C-47 52.32 -47 53.64 -47 55 C-47.66 55 -48.32 55 -49 55 C-49 56.32 -49 57.64 -49 59 C-49.66 59 -50.32 59 -51 59 C-51 60.32 -51 61.64 -51 63 C-51.66 63 -52.32 63 -53 63 C-53 63.66 -53 64.32 -53 65 C-51.68 65 -50.36 65 -49 65 C-49 64.34 -49 63.68 -49 63 C-48.34 63 -47.68 63 -47 63 C-47 61.68 -47 60.36 -47 59 C-46.34 59 -45.68 59 -45 59 C-45 57.68 -45 56.36 -45 55 C-44.34 55 -43.68 55 -43 55 C-43 53.68 -43 52.36 -43 51 C-42.34 51 -41.68 51 -41 51 C-41 49.68 -41 48.36 -41 47 C-40.34 47 -39.68 47 -39 47 C-39 45.68 -39 44.36 -39 43 C-38.34 43 -37.68 43 -37 43 C-37 41.35 -37 39.7 -37 38 C-36.34 38 -35.68 38 -35 38 C-35 36.68 -35 35.36 -35 34 C-34.34 34 -33.68 34 -33 34 C-33 32.68 -33 31.36 -33 30 C-32.34 30 -31.68 30 -31 30 C-31 28.68 -31 27.36 -31 26 C-30.34 26 -29.68 26 -29 26 C-29 24.68 -29 23.36 -29 22 C-28.01 22 -27.02 22 -26 22 C-26 20.68 -26 19.36 -26 18 C-25.34 18 -24.68 18 -24 18 C-24 17.34 -24 16.68 -24 16 C-25.32 16 -26.64 16 -28 16 C-28 15.34 -28 14.68 -28 14 C-26.68 14 -25.36 14 -24 14 C-24 13.34 -24 12.68 -24 12 C-22.68 12 -21.36 12 -20 12 C-20 13.98 -20 15.96 -20 18 C-20.66 18 -21.32 18 -22 18 C-22 19.32 -22 20.64 -22 22 C-22.66 22 -23.32 22 -24 22 C-24 23.32 -24 24.64 -24 26 C-24.66 26 -25.32 26 -26 26 C-26 27.32 -26 28.64 -26 30 C-26.99 30 -27.98 30 -29 30 C-29 31.32 -29 32.64 -29 34 C-29.66 34 -30.32 34 -31 34 C-31 35.32 -31 36.64 -31 38 C-31.66 38 -32.32 38 -33 38 C-33 39.65 -33 41.3 -33 43 C-33.66 43 -34.32 43 -35 43 C-35 44.32 -35 45.64 -35 47 C-35.66 47 -36.32 47 -37 47 C-37 48.32 -37 49.64 -37 51 C-37.66 51 -38.32 51 -39 51 C-39 52.32 -39 53.64 -39 55 C-39.66 55 -40.32 55 -41 55 C-41 55.66 -41 56.32 -41 57 C-41.66 57 -42.32 57 -43 57 C-43 58.32 -43 59.64 -43 61 C-42.34 61 -41.68 61 -41 61 C-41 60.34 -41 59.68 -41 59 C-39.68 59 -38.36 59 -37 59 C-37 58.34 -37 57.68 -37 57 C-35.68 57 -34.36 57 -33 57 C-33 56.34 -33 55.68 -33 55 C-32.34 55 -31.68 55 -31 55 C-31 54.34 -31 53.68 -31 53 C-30.34 53 -29.68 53 -29 53 C-29 51.68 -29 50.36 -29 49 C-28.01 49 -27.02 49 -26 49 C-26 47.68 -26 46.36 -26 45 C-25.34 45 -24.68 45 -24 45 C-24 43.68 -24 42.36 -24 41 C-23.34 41 -22.68 41 -22 41 C-22 39.68 -22 38.36 -22 37 C-21.34 37 -20.68 37 -20 37 C-20 35.35 -20 33.7 -20 32 C-19.34 32 -18.68 32 -18 32 C-18 30.68 -18 29.36 -18 28 C-17.34 28 -16.68 28 -16 28 C-16 26.68 -16 25.36 -16 24 C-15.34 24 -14.68 24 -14 24 C-14 22.68 -14 21.36 -14 20 C-13.34 20 -12.68 20 -12 20 C-12 18.68 -12 17.36 -12 16 C-11.34 16 -10.68 16 -10 16 C-10 14.68 -10 13.36 -10 12 C-9.34 12 -8.68 12 -8 12 C-8 10.68 -8 9.36 -8 8 C-9.32 8 -10.64 8 -12 8 C-12 7.34 -12 6.68 -12 6 C-10.68 6 -9.36 6 -8 6 C-8 5.34 -8 4.68 -8 4 C-6.68 4 -5.36 4 -4 4 C-4 3.34 -4 2.68 -4 2 C-2.68 2 -1.36 2 0 2 C0 1.34 0 0.68 0 0 Z " fill="#353D3E" transform="translate(104,44)"/>
<path d="M0 0 C1.32 0 2.64 0 4 0 C4 0.66 4 1.32 4 2 C3.34 2 2.68 2 2 2 C2 3.32 2 4.64 2 6 C1.34 6 0.68 6 0 6 C0 7.32 0 8.64 0 10 C-0.66 10 -1.32 10 -2 10 C-2 11.32 -2 12.64 -2 14 C-2.66 14 -3.32 14 -4 14 C-4 15.32 -4 16.64 -4 18 C-4.66 18 -5.32 18 -6 18 C-6 19.32 -6 20.64 -6 22 C-6.66 22 -7.32 22 -8 22 C-8 23.65 -8 25.3 -8 27 C-8.66 27 -9.32 27 -10 27 C-10 28.32 -10 29.64 -10 31 C-10.66 31 -11.32 31 -12 31 C-12 32.32 -12 33.64 -12 35 C-12.66 35 -13.32 35 -14 35 C-14 36.32 -14 37.64 -14 39 C-14.66 39 -15.32 39 -16 39 C-16 40.32 -16 41.64 -16 43 C-16.66 43 -17.32 43 -18 43 C-18 44.32 -18 45.64 -18 47 C-18.66 47 -19.32 47 -20 47 C-20 47.66 -20 48.32 -20 49 C-18.68 49 -17.36 49 -16 49 C-16 50.32 -16 51.64 -16 53 C-17.32 53 -18.64 53 -20 53 C-20 53.66 -20 54.32 -20 55 C-21.32 55 -22.64 55 -24 55 C-24 55.99 -24 56.98 -24 58 C-25.32 58 -26.64 58 -28 58 C-28 58.66 -28 59.32 -28 60 C-29.32 60 -30.64 60 -32 60 C-32 60.66 -32 61.32 -32 62 C-33.65 62 -35.3 62 -37 62 C-37 61.34 -37 60.68 -37 60 C-37.66 60 -38.32 60 -39 60 C-39 46.8 -39 33.6 -39 20 C-38.34 20 -37.68 20 -37 20 C-37 19.34 -37 18.68 -37 18 C-35.68 18 -34.36 18 -33 18 C-33 17.34 -33 16.68 -33 16 C-31.68 16 -30.36 16 -29 16 C-29 15.34 -29 14.68 -29 14 C-27.35 14 -25.7 14 -24 14 C-24 13.34 -24 12.68 -24 12 C-22.68 12 -21.36 12 -20 12 C-20 11.34 -20 10.68 -20 10 C-18.68 10 -17.36 10 -16 10 C-16 9.34 -16 8.68 -16 8 C-14.68 8 -13.36 8 -12 8 C-12 7.34 -12 6.68 -12 6 C-10.68 6 -9.36 6 -8 6 C-8 5.34 -8 4.68 -8 4 C-6.68 4 -5.36 4 -4 4 C-4 3.34 -4 2.68 -4 2 C-2.68 2 -1.36 2 0 2 C0 1.34 0 0.68 0 0 Z " fill="#3A4243" transform="translate(71,60)"/>
<path d="M0 0 C1.65 0 3.3 0 5 0 C5 0.66 5 1.32 5 2 C6.32 2 7.64 2 9 2 C9 2.66 9 3.32 9 4 C10.32 4 11.64 4 13 4 C13 4.66 13 5.32 13 6 C14.32 6 15.64 6 17 6 C17 6.66 17 7.32 17 8 C18.32 8 19.64 8 21 8 C21 8.66 21 9.32 21 10 C22.32 10 23.64 10 25 10 C25 10.66 25 11.32 25 12 C26.32 12 27.64 12 29 12 C29 12.66 29 13.32 29 14 C30.32 14 31.64 14 33 14 C33 14.66 33 15.32 33 16 C31.68 16 30.36 16 29 16 C29 16.66 29 17.32 29 18 C27.68 18 26.36 18 25 18 C25 18.66 25 19.32 25 20 C23.68 20 22.36 20 21 20 C21 20.99 21 21.98 21 23 C19.68 23 18.36 23 17 23 C17 23.66 17 24.32 17 25 C15.68 25 14.36 25 13 25 C13 25.66 13 26.32 13 27 C11.68 27 10.36 27 9 27 C9 27.66 9 28.32 9 29 C7.68 29 6.36 29 5 29 C5 29.66 5 30.32 5 31 C3.35 31 1.7 31 0 31 C0 31.66 0 32.32 0 33 C-1.32 33 -2.64 33 -4 33 C-4 33.66 -4 34.32 -4 35 C-5.32 35 -6.64 35 -8 35 C-8 35.66 -8 36.32 -8 37 C-9.32 37 -10.64 37 -12 37 C-12 37.66 -12 38.32 -12 39 C-13.32 39 -14.64 39 -16 39 C-16 39.66 -16 40.32 -16 41 C-17.32 41 -18.64 41 -20 41 C-20 41.66 -20 42.32 -20 43 C-21.32 43 -22.64 43 -24 43 C-24 43.66 -24 44.32 -24 45 C-25.32 45 -26.64 45 -28 45 C-28 45.66 -28 46.32 -28 47 C-29.32 47 -30.64 47 -32 47 C-32 47.66 -32 48.32 -32 49 C-33.65 49 -35.3 49 -37 49 C-37 48.34 -37 47.68 -37 47 C-38.32 47 -39.64 47 -41 47 C-41 46.34 -41 45.68 -41 45 C-42.32 45 -43.64 45 -45 45 C-45 44.34 -45 43.68 -45 43 C-46.32 43 -47.64 43 -49 43 C-49 42.34 -49 41.68 -49 41 C-50.32 41 -51.64 41 -53 41 C-53 40.34 -53 39.68 -53 39 C-50.36 39 -47.72 39 -45 39 C-45 38.34 -45 37.68 -45 37 C-43.68 37 -42.36 37 -41 37 C-41 37.66 -41 38.32 -41 39 C-39.68 39 -38.36 39 -37 39 C-37 39.66 -37 40.32 -37 41 C-38.32 41 -39.64 41 -41 41 C-41 41.66 -41 42.32 -41 43 C-39.35 43 -37.7 43 -36 43 C-36 42.34 -36 41.68 -36 41 C-35.01 41 -34.02 41 -33 41 C-33 41.66 -33 42.32 -33 43 C-31.35 43 -29.7 43 -28 43 C-28 42.34 -28 41.68 -28 41 C-29.32 41 -30.64 41 -32 41 C-32 40.34 -32 39.68 -32 39 C-30.68 39 -29.36 39 -28 39 C-28 38.34 -28 37.68 -28 37 C-26.68 37 -25.36 37 -24 37 C-24 36.34 -24 35.68 -24 35 C-22.68 35 -21.36 35 -20 35 C-20 34.34 -20 33.68 -20 33 C-18.68 33 -17.36 33 -16 33 C-16 32.34 -16 31.68 -16 31 C-14.68 31 -13.36 31 -12 31 C-12 30.34 -12 29.68 -12 29 C-10.68 29 -9.36 29 -8 29 C-8 28.34 -8 27.68 -8 27 C-6.68 27 -5.36 27 -4 27 C-4 26.34 -4 25.68 -4 25 C-2.35 25 -0.7 25 1 25 C1 24.34 1 23.68 1 23 C2.32 23 3.64 23 5 23 C5 22.34 5 21.68 5 21 C5.99 21 6.98 21 8 21 C8 21.66 8 22.32 8 23 C9.65 23 11.3 23 13 23 C13 22.01 13 21.02 13 20 C11.68 19.67 10.36 19.34 9 19 C10.32 19 11.64 19 13 19 C13 18.34 13 17.68 13 17 C14.32 17 15.64 17 17 17 C17 17.66 17 18.32 17 19 C18.32 19 19.64 19 21 19 C21 18.01 21 17.02 21 16 C19.68 16 18.36 16 17 16 C17 15.34 17 14.68 17 14 C15.68 14 14.36 14 13 14 C13 13.34 13 12.68 13 12 C11.68 12 10.36 12 9 12 C9 11.34 9 10.68 9 10 C10.32 10 11.64 10 13 10 C13 9.34 13 8.68 13 8 C11.35 8 9.7 8 8 8 C8 8.66 8 9.32 8 10 C7.01 10 6.02 10 5 10 C5 9.34 5 8.68 5 8 C3.68 8 2.36 8 1 8 C1 7.34 1 6.68 1 6 C1.99 6 2.98 6 4 6 C4 5.34 4 4.68 4 4 C2.68 4 1.36 4 0 4 C0 4.66 0 5.32 0 6 C-1.32 6 -2.64 6 -4 6 C-4 6.66 -4 7.32 -4 8 C-5.32 8 -6.64 8 -8 8 C-8 8.66 -8 9.32 -8 10 C-9.32 10 -10.64 10 -12 10 C-12 10.66 -12 11.32 -12 12 C-13.32 12 -14.64 12 -16 12 C-16 12.66 -16 13.32 -16 14 C-17.32 14 -18.64 14 -20 14 C-20 14.66 -20 15.32 -20 16 C-21.32 16 -22.64 16 -24 16 C-24 16.66 -24 17.32 -24 18 C-27.37097383 19.49821059 -29.20442119 20 -33 20 C-33 20.66 -33 21.32 -33 22 C-34.134375 22.45375 -35.26875 22.9075 -36.4375 23.375 C-40.04721692 24.57095806 -40.04721692 24.57095806 -41 27 C-42.32 27 -43.64 27 -45 27 C-45 27.66 -45 28.32 -45 29 C-46.32 29 -47.64 29 -49 29 C-49 29.66 -49 30.32 -49 31 C-50.32 31 -51.64 31 -53 31 C-53 31.66 -53 32.32 -53 33 C-54.32 33 -55.64 33 -57 33 C-57 34.32 -57 35.64 -57 37 C-58.32 37 -59.64 37 -61 37 C-61 36.34 -61 35.68 -61 35 C-62.32 35 -63.64 35 -65 35 C-65 34.34 -65 33.68 -65 33 C-63.68 33 -62.36 33 -61 33 C-61 32.34 -61 31.68 -61 31 C-59.68 31 -58.36 31 -57 31 C-57 30.34 -57 29.68 -57 29 C-55.68 29 -54.36 29 -53 29 C-53 28.34 -53 27.68 -53 27 C-51.68 27 -50.36 27 -49 27 C-49 26.34 -49 25.68 -49 25 C-47.68 25 -46.36 25 -45 25 C-45 24.01 -45 23.02 -45 22 C-43.68 22 -42.36 22 -41 22 C-41 21.34 -41 20.68 -41 20 C-39.68 20 -38.36 20 -37 20 C-37 19.34 -37 18.68 -37 18 C-35.68 18 -34.36 18 -33 18 C-33 17.34 -33 16.68 -33 16 C-31.35 16 -29.7 16 -28 16 C-28 15.34 -28 14.68 -28 14 C-26.68 14 -25.36 14 -24 14 C-24 13.34 -24 12.68 -24 12 C-22.68 12 -21.36 12 -20 12 C-20 11.34 -20 10.68 -20 10 C-18.68 10 -17.36 10 -16 10 C-16 9.34 -16 8.68 -16 8 C-14.68 8 -13.36 8 -12 8 C-12 7.34 -12 6.68 -12 6 C-10.68 6 -9.36 6 -8 6 C-8 5.34 -8 4.68 -8 4 C-6.68 4 -5.36 4 -4 4 C-4 3.34 -4 2.68 -4 2 C-2.68 2 -1.36 2 0 2 C0 1.34 0 0.68 0 0 Z " fill="#2E3435" transform="translate(112,97)"/>
<path d="M0 0 C1.32 0 2.64 0 4 0 C4 0.66 4 1.32 4 2 C3.01 2 2.02 2 1 2 C1 2.66 1 3.32 1 4 C2.32 4 3.64 4 5 4 C5 4.66 5 5.32 5 6 C5.99 6 6.98 6 8 6 C8 5.34 8 4.68 8 4 C9.65 4 11.3 4 13 4 C13 4.66 13 5.32 13 6 C11.68 6 10.36 6 9 6 C9 6.66 9 7.32 9 8 C10.32 8 11.64 8 13 8 C13 8.66 13 9.32 13 10 C14.32 10 15.64 10 17 10 C17 10.66 17 11.32 17 12 C18.32 12 19.64 12 21 12 C21 12.99 21 13.98 21 15 C19.68 15 18.36 15 17 15 C17 14.34 17 13.68 17 13 C15.68 13 14.36 13 13 13 C13 14.98 13 16.96 13 19 C11.35 19 9.7 19 8 19 C8 18.34 8 17.68 8 17 C7.01 17 6.02 17 5 17 C5 17.66 5 18.32 5 19 C3.68 19 2.36 19 1 19 C1 19.66 1 20.32 1 21 C-0.65 21 -2.3 21 -4 21 C-4 21.66 -4 22.32 -4 23 C-5.32 23 -6.64 23 -8 23 C-8 23.66 -8 24.32 -8 25 C-9.32 25 -10.64 25 -12 25 C-12 25.66 -12 26.32 -12 27 C-13.32 27 -14.64 27 -16 27 C-16 27.66 -16 28.32 -16 29 C-17.32 29 -18.64 29 -20 29 C-20 29.66 -20 30.32 -20 31 C-21.32 31 -22.64 31 -24 31 C-24 31.66 -24 32.32 -24 33 C-26.97 33 -29.94 33 -33 33 C-33 33.66 -33 34.32 -33 35 C-33.99 35 -34.98 35 -36 35 C-36 34.34 -36 33.68 -36 33 C-37.32 33 -38.64 33 -40 33 C-40 32.34 -40 31.68 -40 31 C-38.68 31 -37.36 31 -36 31 C-36 30.34 -36 29.68 -36 29 C-35.01 29 -34.02 29 -33 29 C-33 29.66 -33 30.32 -33 31 C-31.35 31 -29.7 31 -28 31 C-28 30.34 -28 29.68 -28 29 C-29.32 29 -30.64 29 -32 29 C-32 28.34 -32 27.68 -32 27 C-30.68 27 -29.36 27 -28 27 C-28 26.34 -28 25.68 -28 25 C-29.2375 25.226875 -30.475 25.45375 -31.75 25.6875 C-34.86853111 26.09666898 -35.68127899 26.18326458 -38.5 24.5625 C-38.995 24.046875 -39.49 23.53125 -40 23 C-39.01 23 -38.02 23 -37 23 C-37 22.34 -37 21.68 -37 21 C-37.99 20.67 -38.98 20.34 -40 20 C-37.35261084 18.5393715 -36.10551666 18 -33 18 C-33 17.34 -33 16.68 -33 16 C-29.62902617 14.50178941 -27.79557881 14 -24 14 C-24 13.34 -24 12.68 -24 12 C-22.68 12 -21.36 12 -20 12 C-20 11.34 -20 10.68 -20 10 C-18.68 10 -17.36 10 -16 10 C-16 9.34 -16 8.68 -16 8 C-14.68 8 -13.36 8 -12 8 C-12 7.34 -12 6.68 -12 6 C-10.68 6 -9.36 6 -8 6 C-8 5.34 -8 4.68 -8 4 C-6.68 4 -5.36 4 -4 4 C-4 3.34 -4 2.68 -4 2 C-2.68 2 -1.36 2 0 2 C0 1.34 0 0.68 0 0 Z " fill="#5A6164" transform="translate(112,101)"/>
<path d="M0 0 C2.64 0 5.28 0 8 0 C8 1.32 8 2.64 8 4 C7.34 4 6.68 4 6 4 C6 5.32 6 6.64 6 8 C5.34 8 4.68 8 4 8 C4 9.32 4 10.64 4 12 C3.34 12 2.68 12 2 12 C2 13.32 2 14.64 2 16 C1.34 16 0.68 16 0 16 C0 17.32 0 18.64 0 20 C-0.66 20 -1.32 20 -2 20 C-2 21.32 -2 22.64 -2 24 C-2.66 24 -3.32 24 -4 24 C-4 25.65 -4 27.3 -4 29 C-4.66 29 -5.32 29 -6 29 C-6 30.32 -6 31.64 -6 33 C-6.66 33 -7.32 33 -8 33 C-8 34.32 -8 35.64 -8 37 C-8.66 37 -9.32 37 -10 37 C-10 38.32 -10 39.64 -10 41 C-10.99 41 -11.98 41 -13 41 C-13 42.32 -13 43.64 -13 45 C-13.66 45 -14.32 45 -15 45 C-15 45.66 -15 46.32 -15 47 C-15.66 47 -16.32 47 -17 47 C-17 47.66 -17 48.32 -17 49 C-18.32 49 -19.64 49 -21 49 C-21 49.66 -21 50.32 -21 51 C-22.32 51 -23.64 51 -25 51 C-25 51.66 -25 52.32 -25 53 C-25.66 53 -26.32 53 -27 53 C-27 51.68 -27 50.36 -27 49 C-26.34 49 -25.68 49 -25 49 C-25 48.34 -25 47.68 -25 47 C-24.34 47 -23.68 47 -23 47 C-23 45.68 -23 44.36 -23 43 C-22.34 43 -21.68 43 -21 43 C-21 41.68 -21 40.36 -21 39 C-20.34 39 -19.68 39 -19 39 C-19 37.68 -19 36.36 -19 35 C-18.34 35 -17.68 35 -17 35 C-17 33.35 -17 31.7 -17 30 C-16.34 30 -15.68 30 -15 30 C-15 28.68 -15 27.36 -15 26 C-14.34 26 -13.68 26 -13 26 C-13 24.68 -13 23.36 -13 22 C-12.01 22 -11.02 22 -10 22 C-10 20.68 -10 19.36 -10 18 C-9.34 18 -8.68 18 -8 18 C-8 16.68 -8 15.36 -8 14 C-7.34 14 -6.68 14 -6 14 C-6 12.68 -6 11.36 -6 10 C-5.34 10 -4.68 10 -4 10 C-4 7.36 -4 4.72 -4 2 C-2.68 2 -1.36 2 0 2 C0 1.34 0 0.68 0 0 Z " fill="#6A6F6F" transform="translate(88,52)"/>
<path d="M0 0 C0 0.66 0 1.32 0 2 C1.32 2.33 2.64 2.66 4 3 C2.68 3 1.36 3 0 3 C0 3.66 0 4.32 0 5 C-2.64 4.67 -5.28 4.34 -8 4 C-8 4.66 -8 5.32 -8 6 C-6.68 6.33 -5.36 6.66 -4 7 C-5.32 7 -6.64 7 -8 7 C-8 7.99 -8 8.98 -8 10 C-6.68 10 -5.36 10 -4 10 C-4 9.34 -4 8.68 -4 8 C-2.68 8 -1.36 8 0 8 C0 8.66 0 9.32 0 10 C1.32 10 2.64 10 4 10 C4 9.01 4 8.02 4 7 C2.68 6.67 1.36 6.34 0 6 C1.32 6 2.64 6 4 6 C4 5.34 4 4.68 4 4 C5.32 4 6.64 4 8 4 C8 4.66 8 5.32 8 6 C9.32 6 10.64 6 12 6 C12 7.32 12 8.64 12 10 C10.68 10 9.36 10 8 10 C8 10.66 8 11.32 8 12 C6.68 12 5.36 12 4 12 C4 12.66 4 13.32 4 14 C2.68 14 1.36 14 0 14 C0 14.66 0 15.32 0 16 C-1.32 16 -2.64 16 -4 16 C-4 16.66 -4 17.32 -4 18 C-5.32 18 -6.64 18 -8 18 C-8 18.66 -8 19.32 -8 20 C-10.97 20 -13.94 20 -17 20 C-17 20.66 -17 21.32 -17 22 C-17.99 22 -18.98 22 -20 22 C-20 21.34 -20 20.68 -20 20 C-21.32 20 -22.64 20 -24 20 C-24 19.34 -24 18.68 -24 18 C-22.68 18 -21.36 18 -20 18 C-20 17.34 -20 16.68 -20 16 C-19.01 16 -18.02 16 -17 16 C-17 16.66 -17 17.32 -17 18 C-15.35 18 -13.7 18 -12 18 C-12 17.34 -12 16.68 -12 16 C-13.32 16 -14.64 16 -16 16 C-16 15.34 -16 14.68 -16 14 C-14.68 14 -13.36 14 -12 14 C-12 13.34 -12 12.68 -12 12 C-13.2375 12.226875 -14.475 12.45375 -15.75 12.6875 C-18.86853111 13.09666898 -19.68127899 13.18326458 -22.5 11.5625 C-22.995 11.046875 -23.49 10.53125 -24 10 C-23.01 10 -22.02 10 -21 10 C-21 9.34 -21 8.68 -21 8 C-21.99 7.67 -22.98 7.34 -24 7 C-21.35261084 5.5393715 -20.10551666 5 -17 5 C-17 4.34 -17 3.68 -17 3 C-11.47911677 0.41208598 -6.06447895 0 0 0 Z " fill="#5A6164" transform="translate(96,114)"/>
<path d="M0 0 C1.32 0 2.64 0 4 0 C4 1.98 4 3.96 4 6 C3.34 6 2.68 6 2 6 C2 7.32 2 8.64 2 10 C1.34 10 0.68 10 0 10 C0 11.32 0 12.64 0 14 C-0.66 14 -1.32 14 -2 14 C-2 15.32 -2 16.64 -2 18 C-2.99 18 -3.98 18 -5 18 C-5 19.32 -5 20.64 -5 22 C-5.66 22 -6.32 22 -7 22 C-7 23.32 -7 24.64 -7 26 C-7.66 26 -8.32 26 -9 26 C-9 27.65 -9 29.3 -9 31 C-9.66 31 -10.32 31 -11 31 C-11 32.32 -11 33.64 -11 35 C-11.66 35 -12.32 35 -13 35 C-13 36.32 -13 37.64 -13 39 C-13.66 39 -14.32 39 -15 39 C-15 40.32 -15 41.64 -15 43 C-15.66 43 -16.32 43 -17 43 C-17 43.66 -17 44.32 -17 45 C-17.66 45 -18.32 45 -19 45 C-19 46.32 -19 47.64 -19 49 C-18.34 49 -17.68 49 -17 49 C-17 48.34 -17 47.68 -17 47 C-15.68 47 -14.36 47 -13 47 C-13 46.34 -13 45.68 -13 45 C-11.68 45 -10.36 45 -9 45 C-9 44.34 -9 43.68 -9 43 C-8.34 43 -7.68 43 -7 43 C-7 42.34 -7 41.68 -7 41 C-4.69 41 -2.38 41 0 41 C0 40.34 0 39.68 0 39 C1.32 39 2.64 39 4 39 C4 38.34 4 37.68 4 37 C5.32 37 6.64 37 8 37 C8 36.34 8 35.68 8 35 C10.64 35 13.28 35 16 35 C16 35.66 16 36.32 16 37 C14.68 37 13.36 37 12 37 C12 37.66 12 38.32 12 39 C10.68 39 9.36 39 8 39 C8 39.66 8 40.32 8 41 C6.68 41 5.36 41 4 41 C4 41.66 4 42.32 4 43 C2.68 43 1.36 43 0 43 C0 43.66 0 44.32 0 45 C-1.65 45 -3.3 45 -5 45 C-5 45.66 -5 46.32 -5 47 C-6.32 47 -7.64 47 -9 47 C-9 47.66 -9 48.32 -9 49 C-10.32 49 -11.64 49 -13 49 C-13 49.66 -13 50.32 -13 51 C-14.32 51 -15.64 51 -17 51 C-17 51.66 -17 52.32 -17 53 C-18.32 53 -19.64 53 -21 53 C-21 53.66 -21 54.32 -21 55 C-22.32 55 -23.64 55 -25 55 C-25 53.68 -25 52.36 -25 51 C-24.34 51 -23.68 51 -23 51 C-23 49.68 -23 48.36 -23 47 C-22.34 47 -21.68 47 -21 47 C-21 45.68 -21 44.36 -21 43 C-20.34 43 -19.68 43 -19 43 C-19 41.68 -19 40.36 -19 39 C-18.34 39 -17.68 39 -17 39 C-17 37.68 -17 36.36 -17 35 C-16.34 35 -15.68 35 -15 35 C-15 33.68 -15 32.36 -15 31 C-14.34 31 -13.68 31 -13 31 C-13 29.35 -13 27.7 -13 26 C-12.34 26 -11.68 26 -11 26 C-11 24.68 -11 23.36 -11 22 C-10.34 22 -9.68 22 -9 22 C-9 20.68 -9 19.36 -9 18 C-8.34 18 -7.68 18 -7 18 C-7 16.68 -7 15.36 -7 14 C-6.34 14 -5.68 14 -5 14 C-5 12.68 -5 11.36 -5 10 C-4.01 10 -3.02 10 -2 10 C-2 8.68 -2 7.36 -2 6 C-1.34 6 -0.68 6 0 6 C0 5.34 0 4.68 0 4 C-1.32 4 -2.64 4 -4 4 C-4 3.34 -4 2.68 -4 2 C-2.68 2 -1.36 2 0 2 C0 1.34 0 0.68 0 0 Z " fill="#3E4546" transform="translate(80,56)"/>
<path d="M0 0 C0.66 0 1.32 0 2 0 C2 0.66 2 1.32 2 2 C3.32 2 4.64 2 6 2 C6 2.66 6 3.32 6 4 C7.65 4 9.3 4 11 4 C11 4.66 11 5.32 11 6 C12.32 6 13.64 6 15 6 C15 6.66 15 7.32 15 8 C16.32 8 17.64 8 19 8 C19 8.66 19 9.32 19 10 C20.32 10 21.64 10 23 10 C23 10.66 23 11.32 23 12 C24.32 12 25.64 12 27 12 C27 12.66 27 13.32 27 14 C28.32 14 29.64 14 31 14 C31 14.66 31 15.32 31 16 C32.32 16 33.64 16 35 16 C35 16.99 35 17.98 35 19 C36.32 19 37.64 19 39 19 C39 19.66 39 20.32 39 21 C40.32 21 41.64 21 43 21 C43 21.66 43 22.32 43 23 C43.66 23.103125 44.32 23.20625 45 23.3125 C48.83841009 24.19213564 52.33096691 25.56969896 56 27 C56 27.66 56 28.32 56 29 C57.32 29 58.64 29 60 29 C60 30.98 60 32.96 60 35 C58.68 35 57.36 35 56 35 C56 34.34 56 33.68 56 33 C54.68 33 53.36 33 52 33 C52 32.01 52 31.02 52 30 C50.68 30 49.36 30 48 30 C48 29.34 48 28.68 48 28 C47.2575 27.855625 46.515 27.71125 45.75 27.5625 C43.47972261 27.09812508 41.24240521 26.58136431 39 26 C39 25.34 39 24.68 39 24 C37.68 24 36.36 24 35 24 C35 23.34 35 22.68 35 22 C33.68 22 32.36 22 31 22 C31 21.34 31 20.68 31 20 C29.68 20 28.36 20 27 20 C27 19.34 27 18.68 27 18 C25.68 18 24.36 18 23 18 C23 17.34 23 16.68 23 16 C21.68 16 20.36 16 19 16 C19 15.34 19 14.68 19 14 C17.68 14 16.36 14 15 14 C15 13.34 15 12.68 15 12 C13.68 12 12.36 12 11 12 C11 11.34 11 10.68 11 10 C9.68 10 8.36 10 7 10 C7 9.34 7 8.68 7 8 C5.35 8 3.7 8 2 8 C2 7.34 2 6.68 2 6 C1.34 6 0.68 6 0 6 C0 4.02 0 2.04 0 0 Z " fill="#474A4C" transform="translate(30,134)"/>
<path d="M0 0 C1.32 0 2.64 0 4 0 C4 0.66 4 1.32 4 2 C3.34 2 2.68 2 2 2 C2 3.32 2 4.64 2 6 C1.278125 5.938125 0.55625 5.87625 -0.1875 5.8125 C-3.54840793 6.03656053 -5.16657107 7.25635143 -8 9 C-9.32 9 -10.64 9 -12 9 C-12 9.66 -12 10.32 -12 11 C-13.32 11 -14.64 11 -16 11 C-16 11.66 -16 12.32 -16 13 C-17.32 13 -18.64 13 -20 13 C-20 13.66 -20 14.32 -20 15 C-21.32 15 -22.64 15 -24 15 C-24 15.66 -24 16.32 -24 17 C-25.32 17 -26.64 17 -28 17 C-28 17.66 -28 18.32 -28 19 C-30.31 19.33 -32.62 19.66 -35 20 C-35.33 32.87 -35.66 45.74 -36 59 C-35.34 59 -34.68 59 -34 59 C-33.67 57.68 -33.34 56.36 -33 55 C-31.68 55 -30.36 55 -29 55 C-29 54.34 -29 53.68 -29 53 C-27.783125 52.855625 -26.56625 52.71125 -25.3125 52.5625 C-22.17329623 52.17219047 -19.0924866 51.67648144 -16 51 C-16 51.66 -16 52.32 -16 53 C-17.32 53 -18.64 53 -20 53 C-20 53.66 -20 54.32 -20 55 C-21.32 55 -22.64 55 -24 55 C-24 55.99 -24 56.98 -24 58 C-25.32 58 -26.64 58 -28 58 C-28 58.66 -28 59.32 -28 60 C-29.32 60 -30.64 60 -32 60 C-32 60.66 -32 61.32 -32 62 C-33.65 62 -35.3 62 -37 62 C-37 61.34 -37 60.68 -37 60 C-37.66 60 -38.32 60 -39 60 C-39 46.8 -39 33.6 -39 20 C-38.34 20 -37.68 20 -37 20 C-37 19.34 -37 18.68 -37 18 C-35.68 18 -34.36 18 -33 18 C-33 17.34 -33 16.68 -33 16 C-31.68 16 -30.36 16 -29 16 C-29 15.34 -29 14.68 -29 14 C-27.35 14 -25.7 14 -24 14 C-24 13.34 -24 12.68 -24 12 C-22.68 12 -21.36 12 -20 12 C-20 11.34 -20 10.68 -20 10 C-18.68 10 -17.36 10 -16 10 C-16 9.34 -16 8.68 -16 8 C-14.68 8 -13.36 8 -12 8 C-12 7.34 -12 6.68 -12 6 C-10.68 6 -9.36 6 -8 6 C-8 5.34 -8 4.68 -8 4 C-6.68 4 -5.36 4 -4 4 C-4 3.34 -4 2.68 -4 2 C-2.68 2 -1.36 2 0 2 C0 1.34 0 0.68 0 0 Z " fill="#292C2E" transform="translate(71,60)"/>
<path d="M0 0 C1.65 0 3.3 0 5 0 C5 0.66 5 1.32 5 2 C5.99 2 6.98 2 8 2 C8 2.66 8 3.32 8 4 C5.36 4 2.72 4 0 4 C0 4.66 0 5.32 0 6 C-1.32 6 -2.64 6 -4 6 C-4 6.66 -4 7.32 -4 8 C-5.32 8 -6.64 8 -8 8 C-8 8.66 -8 9.32 -8 10 C-9.32 10 -10.64 10 -12 10 C-12 10.66 -12 11.32 -12 12 C-13.32 12 -14.64 12 -16 12 C-16 12.66 -16 13.32 -16 14 C-17.32 14 -18.64 14 -20 14 C-20 14.66 -20 15.32 -20 16 C-21.32 16 -22.64 16 -24 16 C-24 16.66 -24 17.32 -24 18 C-27.37097383 19.49821059 -29.20442119 20 -33 20 C-33 20.66 -33 21.32 -33 22 C-34.134375 22.45375 -35.26875 22.9075 -36.4375 23.375 C-40.04721692 24.57095806 -40.04721692 24.57095806 -41 27 C-42.32 27 -43.64 27 -45 27 C-45 27.66 -45 28.32 -45 29 C-46.32 29 -47.64 29 -49 29 C-49 29.66 -49 30.32 -49 31 C-50.32 31 -51.64 31 -53 31 C-53 31.66 -53 32.32 -53 33 C-54.32 33 -55.64 33 -57 33 C-57 34.32 -57 35.64 -57 37 C-58.32 37 -59.64 37 -61 37 C-61 36.34 -61 35.68 -61 35 C-62.32 35 -63.64 35 -65 35 C-65 34.34 -65 33.68 -65 33 C-63.68 33 -62.36 33 -61 33 C-61 32.34 -61 31.68 -61 31 C-59.68 31 -58.36 31 -57 31 C-57 30.34 -57 29.68 -57 29 C-55.68 29 -54.36 29 -53 29 C-53 28.34 -53 27.68 -53 27 C-51.68 27 -50.36 27 -49 27 C-49 26.34 -49 25.68 -49 25 C-47.68 25 -46.36 25 -45 25 C-45 24.01 -45 23.02 -45 22 C-43.68 22 -42.36 22 -41 22 C-41 21.34 -41 20.68 -41 20 C-39.68 20 -38.36 20 -37 20 C-37 19.34 -37 18.68 -37 18 C-35.68 18 -34.36 18 -33 18 C-33 17.34 -33 16.68 -33 16 C-31.35 16 -29.7 16 -28 16 C-28 15.34 -28 14.68 -28 14 C-26.68 14 -25.36 14 -24 14 C-24 13.34 -24 12.68 -24 12 C-22.68 12 -21.36 12 -20 12 C-20 11.34 -20 10.68 -20 10 C-18.68 10 -17.36 10 -16 10 C-16 9.34 -16 8.68 -16 8 C-14.68 8 -13.36 8 -12 8 C-12 7.34 -12 6.68 -12 6 C-10.68 6 -9.36 6 -8 6 C-8 5.34 -8 4.68 -8 4 C-6.68 4 -5.36 4 -4 4 C-4 3.34 -4 2.68 -4 2 C-2.68 2 -1.36 2 0 2 C0 1.34 0 0.68 0 0 Z " fill="#202525" transform="translate(112,97)"/>
<path d="M0 0 C1.32 0 2.64 0 4 0 C4.33 1.32 4.66 2.64 5 4 C7.64 4 10.28 4 13 4 C13 4.66 13 5.32 13 6 C11.68 6 10.36 6 9 6 C9 6.66 9 7.32 9 8 C10.32 8 11.64 8 13 8 C13 8.66 13 9.32 13 10 C11.35 10 9.7 10 8 10 C8 9.34 8 8.68 8 8 C7.01 8 6.02 8 5 8 C5 8.66 5 9.32 5 10 C3.68 10 2.36 10 1 10 C1 10.66 1 11.32 1 12 C2.32 12 3.64 12 5 12 C5 12.66 5 13.32 5 14 C5.99 14 6.98 14 8 14 C8 13.34 8 12.68 8 12 C9.65 12 11.3 12 13 12 C13 12.66 13 13.32 13 14 C11.68 14 10.36 14 9 14 C9 14.66 9 15.32 9 16 C10.32 16 11.64 16 13 16 C13 16.66 13 17.32 13 18 C11.35 18 9.7 18 8 18 C8 17.34 8 16.68 8 16 C7.01 16 6.02 16 5 16 C5 16.66 5 17.32 5 18 C3.35 18 1.7 18 0 18 C0 17.34 0 16.68 0 16 C1.32 16 2.64 16 4 16 C4 15.34 4 14.68 4 14 C2.68 14 1.36 14 0 14 C0 13.34 0 12.68 0 12 C-1.32 12 -2.64 12 -4 12 C-4 12.66 -4 13.32 -4 14 C-7.96 14 -11.92 14 -16 14 C-16 12.02 -16 10.04 -16 8 C-14.68 8 -13.36 8 -12 8 C-12 7.34 -12 6.68 -12 6 C-10.68 6 -9.36 6 -8 6 C-8 5.34 -8 4.68 -8 4 C-6.68 4 -5.36 4 -4 4 C-4 3.34 -4 2.68 -4 2 C-2.68 2 -1.36 2 0 2 C0 1.34 0 0.68 0 0 Z " fill="#7D8389" transform="translate(71,122)"/>
<path d="M0 0 C1.32 0 2.64 0 4 0 C4 0.66 4 1.32 4 2 C5.32 2 6.64 2 8 2 C8 2.66 8 3.32 8 4 C9.32 4 10.64 4 12 4 C12 5.32 12 6.64 12 8 C10.68 8 9.36 8 8 8 C8 8.66 8 9.32 8 10 C6.68 10 5.36 10 4 10 C4 10.66 4 11.32 4 12 C2.68 12 1.36 12 0 12 C0 12.66 0 13.32 0 14 C-1.32 14 -2.64 14 -4 14 C-4 14.66 -4 15.32 -4 16 C-5.65 16 -7.3 16 -9 16 C-9 15.34 -9 14.68 -9 14 C-10.32 14 -11.64 14 -13 14 C-13 13.34 -13 12.68 -13 12 C-14.32 12 -15.64 12 -17 12 C-17 11.34 -17 10.68 -17 10 C-17.66 10 -18.32 10 -19 10 C-19 9.34 -19 8.68 -19 8 C-16.69 8 -14.38 8 -12 8 C-12 7.34 -12 6.68 -12 6 C-10.68 6 -9.36 6 -8 6 C-8 5.34 -8 4.68 -8 4 C-6.68 4 -5.36 4 -4 4 C-4 3.34 -4 2.68 -4 2 C-2.68 2 -1.36 2 0 2 C0 1.34 0 0.68 0 0 Z " fill="#2B3132" transform="translate(125,128)"/>
<path d="M0 0 C0.721875 0.185625 1.44375 0.37125 2.1875 0.5625 C5.12826973 1.01995307 7.14103058 0.73516357 10 0 C10 0.66 10 1.32 10 2 C8.68 2 7.36 2 6 2 C6 2.66 6 3.32 6 4 C4.68 4 3.36 4 2 4 C2 4.66 2 5.32 2 6 C0.68 6 -0.64 6 -2 6 C-2 6.66 -2 7.32 -2 8 C-3.32 8 -4.64 8 -6 8 C-6 8.66 -6 9.32 -6 10 C-7.32 10 -8.64 10 -10 10 C-10 10.66 -10 11.32 -10 12 C-11.65 12 -13.3 12 -15 12 C-15 12.66 -15 13.32 -15 14 C-16.32 14 -17.64 14 -19 14 C-19 14.66 -19 15.32 -19 16 C-20.32 16 -21.64 16 -23 16 C-23 16.66 -23 17.32 -23 18 C-24.32 18 -25.64 18 -27 18 C-27 18.66 -27 19.32 -27 20 C-28.32 20 -29.64 20 -31 20 C-31 20.66 -31 21.32 -31 22 C-32.32 22 -33.64 22 -35 22 C-35 22.66 -35 23.32 -35 24 C-36.32 24 -37.64 24 -39 24 C-39 24.66 -39 25.32 -39 26 C-40.32 26 -41.64 26 -43 26 C-43 25.34 -43 24.68 -43 24 C-42.01 24 -41.02 24 -40 24 C-40 23.34 -40 22.68 -40 22 C-39.34 21.67 -38.68 21.34 -38 21 C-37.67 20.01 -37.34 19.02 -37 18 C-35.68 18 -34.36 18 -33 18 C-33 17.34 -33 16.68 -33 16 C-31.68 16 -30.36 16 -29 16 C-29 15.34 -29 14.68 -29 14 C-27.68 14 -26.36 14 -25 14 C-25 13.34 -25 12.68 -25 12 C-23.68 12 -22.36 12 -21 12 C-21 11.34 -21 10.68 -21 10 C-19.68 10 -18.36 10 -17 10 C-17 9.34 -17 8.68 -17 8 C-15.68 8 -14.36 8 -13 8 C-13 7.34 -13 6.68 -13 6 C-11.35 6 -9.7 6 -8 6 C-8 5.34 -8 4.68 -8 4 C-6.68 4 -5.36 4 -4 4 C-4 3.34 -4 2.68 -4 2 C-2.68 2 -1.36 2 0 2 C0 1.34 0 0.68 0 0 Z " fill="#80868C" transform="translate(82,44)"/>
<path d="M0 0 C0.66 0 1.32 0 2 0 C2 0.66 2 1.32 2 2 C2.66 2 3.32 2 4 2 C4 20.48 4 38.96 4 58 C3.34 58 2.68 58 2 58 C2 57.34 2 56.68 2 56 C1.34 56 0.68 56 0 56 C0 37.52 0 19.04 0 0 Z " fill="#434547" transform="translate(22,74)"/>
<path d="M0 0 C0.33 0.66 0.66 1.32 1 2 C2.32 2 3.64 2 5 2 C5 2.66 5 3.32 5 4 C4.34 4 3.68 4 3 4 C3 5.32 3 6.64 3 8 C2.01 8 1.02 8 0 8 C0 9.32 0 10.64 0 12 C-0.66 12 -1.32 12 -2 12 C-2 13.32 -2 14.64 -2 16 C-2.66 16 -3.32 16 -4 16 C-4 17.32 -4 18.64 -4 20 C-4.66 20 -5.32 20 -6 20 C-6 21.32 -6 22.64 -6 24 C-6.66 24 -7.32 24 -8 24 C-8 25.65 -8 27.3 -8 29 C-8.66 29 -9.32 29 -10 29 C-10 30.32 -10 31.64 -10 33 C-10.66 33 -11.32 33 -12 33 C-12 34.32 -12 35.64 -12 37 C-12.66 37 -13.32 37 -14 37 C-14 38.32 -14 39.64 -14 41 C-14.66 41 -15.32 41 -16 41 C-16 42.32 -16 43.64 -16 45 C-16.66 45 -17.32 45 -18 45 C-18 46.32 -18 47.64 -18 49 C-18.66 49 -19.32 49 -20 49 C-20 49.66 -20 50.32 -20 51 C-21.32 51 -22.64 51 -24 51 C-24 50.34 -24 49.68 -24 49 C-23.34 49 -22.68 49 -22 49 C-22 47.68 -22 46.36 -22 45 C-21.34 45 -20.68 45 -20 45 C-20 43.68 -20 42.36 -20 41 C-19.34 41 -18.68 41 -18 41 C-18 39.68 -18 38.36 -18 37 C-17.34 37 -16.68 37 -16 37 C-16 35.68 -16 34.36 -16 33 C-15.34 33 -14.68 33 -14 33 C-14 31.68 -14 30.36 -14 29 C-13.34 29 -12.68 29 -12 29 C-12 27.35 -12 25.7 -12 24 C-11.34 24 -10.68 24 -10 24 C-10 22.68 -10 21.36 -10 20 C-9.34 20 -8.68 20 -8 20 C-8 18.68 -8 17.36 -8 16 C-7.34 16 -6.68 16 -6 16 C-6 14.68 -6 13.36 -6 12 C-5.34 12 -4.68 12 -4 12 C-4 10.68 -4 9.36 -4 8 C-3.34 8 -2.68 8 -2 8 C-2 6.68 -2 5.36 -2 4 C-1.34 4 -0.68 4 0 4 C0 2.68 0 1.36 0 0 Z " fill="#707474" transform="translate(75,58)"/>
<path d="M0 0 C1.32 0 2.64 0 4 0 C4 0.66 4 1.32 4 2 C4.66 2 5.32 2 6 2 C6 14.87 6 27.74 6 41 C5.34 41 4.68 41 4 41 C4 41.66 4 42.32 4 43 C2.68 43 1.36 43 0 43 C0 43.66 0 44.32 0 45 C-1.32 45 -2.64 45 -4 45 C-4 43.68 -4 42.36 -4 41 C-2.68 41 -1.36 41 0 41 C0 40.34 0 39.68 0 39 C0.66 39 1.32 39 2 39 C2 26.79 2 14.58 2 2 C1.34 2 0.68 2 0 2 C0 1.34 0 0.68 0 0 Z " fill="#151919" transform="translate(104,44)"/>
<path d="M0 0 C1.32 0 2.64 0 4 0 C4 0.66 4 1.32 4 2 C5.32 2 6.64 2 8 2 C8 2.66 8 3.32 8 4 C9.32 4 10.64 4 12 4 C12 3.34 12 2.68 12 2 C13.32 2 14.64 2 16 2 C16 1.34 16 0.68 16 0 C17.32 0 18.64 0 20 0 C20 0.66 20 1.32 20 2 C21.32 2 22.64 2 24 2 C24 2.66 24 3.32 24 4 C21.36 3.67 18.72 3.34 16 3 C16 4.65 16 6.3 16 8 C17.32 8 18.64 8 20 8 C20 7.34 20 6.68 20 6 C21.32 6 22.64 6 24 6 C24 6.99 24 7.98 24 9 C23.01 9 22.02 9 21 9 C21 9.66 21 10.32 21 11 C19.35 11 17.7 11 16 11 C16 10.34 16 9.68 16 9 C14.68 9 13.36 9 12 9 C12 8.34 12 7.68 12 7 C10.68 7 9.36 7 8 7 C8 8.98 8 10.96 8 13 C6.68 13 5.36 13 4 13 C4 12.34 4 11.68 4 11 C2.68 11 1.36 11 0 11 C0 11.66 0 12.32 0 13 C-1.32 13 -2.64 13 -4 13 C-4 11.02 -4 9.04 -4 7 C-1.36 7.33 1.28 7.66 4 8 C4 6.35 4 4.7 4 3 C1.36 3.33 -1.28 3.66 -4 4 C-4 3.34 -4 2.68 -4 2 C-2.68 2 -1.36 2 0 2 C0 1.34 0 0.68 0 0 Z " fill="#757A80" transform="translate(92,111)"/>
<path d="M0 0 C-0.1875 2.3125 -0.1875 2.3125 -1 5 C-4.31964326 7.60188256 -5.69316041 8 -10 8 C-10 8.66 -10 9.32 -10 10 C-11.32 10 -12.64 10 -14 10 C-14 10.66 -14 11.32 -14 12 C-15.32 12 -16.64 12 -18 12 C-18 12.66 -18 13.32 -18 14 C-19.2375 14.144375 -20.475 14.28875 -21.75 14.4375 C-24.56504499 14.78688502 -27.2701497 15.20379366 -30 16 C-29.34 14.68 -28.68 13.36 -28 12 C-26.68 12 -25.36 12 -24 12 C-24 11.01 -24 10.02 -24 9 C-22.68 9 -21.36 9 -20 9 C-20 8.34 -20 7.68 -20 7 C-18.68 7 -17.36 7 -16 7 C-16 6.34 -16 5.68 -16 5 C-14.68 5 -13.36 5 -12 5 C-12 4.34 -12 3.68 -12 3 C-10.68 3 -9.36 3 -8 3 C-8 2.34 -8 1.68 -8 1 C-5.23735711 0.40267181 -2.83967231 0 0 0 Z " fill="#82888E" transform="translate(114,30)"/>
<path d="M0 0 C1.32 0 2.64 0 4 0 C4 0.99 4 1.98 4 3 C0.04 4.98 0.04 4.98 -4 7 C-4.33 24.82 -4.66 42.64 -5 61 C-5.66 61 -6.32 61 -7 61 C-7 42.85 -7 24.7 -7 6 C-7.99 5.67 -8.98 5.34 -10 5 C-9 4 -9 4 -6.4375 3.9375 C-5.2309375 3.9684375 -5.2309375 3.9684375 -4 4 C-4 3.34 -4 2.68 -4 2 C-2.68 2 -1.36 2 0 2 C0 1.34 0 0.68 0 0 Z " fill="#898F95" transform="translate(34,70)"/>
<path d="M0 0 C1.32 0 2.64 0 4 0 C4 0.66 4 1.32 4 2 C5.32 2 6.64 2 8 2 C8 2.66 8 3.32 8 4 C6.68 4 5.36 4 4 4 C4 4.66 4 5.32 4 6 C5.65 6 7.3 6 9 6 C9 5.34 9 4.68 9 4 C9.99 4 10.98 4 12 4 C12 4.66 12 5.32 12 6 C14.97 6 17.94 6 21 6 C21 6.66 21 7.32 21 8 C19.68 8 18.36 8 17 8 C17 8.66 17 9.32 17 10 C15.68 10 14.36 10 13 10 C13 10.66 13 11.32 13 12 C11.35 12 9.7 12 8 12 C8 11.34 8 10.68 8 10 C6.68 10 5.36 10 4 10 C4 9.34 4 8.68 4 8 C2.68 8 1.36 8 0 8 C0 7.34 0 6.68 0 6 C-1.32 6 -2.64 6 -4 6 C-4 5.34 -4 4.68 -4 4 C-5.32 4 -6.64 4 -8 4 C-8 3.34 -8 2.68 -8 2 C-5.36 2 -2.72 2 0 2 C0 1.34 0 0.68 0 0 Z " fill="#1F2324" transform="translate(67,134)"/>
<path d="M0 0 C1.65 0 3.3 0 5 0 C3.68 0.33 2.36 0.66 1 1 C0.979375 1.763125 0.95875 2.52625 0.9375 3.3125 C0.628125 4.199375 0.31875 5.08625 0 6 C-3.5 7.6875 -3.5 7.6875 -7 9 C-7.33 9.66 -7.66 10.32 -8 11 C-9.32 11 -10.64 11 -12 11 C-12 11.66 -12 12.32 -12 13 C-13.32 13 -14.64 13 -16 13 C-16 13.66 -16 14.32 -16 15 C-17.32 15 -18.64 15 -20 15 C-20 15.66 -20 16.32 -20 17 C-21.32 17 -22.64 17 -24 17 C-24 18.32 -24 19.64 -24 21 C-25.32 21 -26.64 21 -28 21 C-28 20.34 -28 19.68 -28 19 C-29.32 19 -30.64 19 -32 19 C-32 18.34 -32 17.68 -32 17 C-30.68 17 -29.36 17 -28 17 C-28 16.34 -28 15.68 -28 15 C-26.68 15 -25.36 15 -24 15 C-24 14.34 -24 13.68 -24 13 C-22.68 13 -21.36 13 -20 13 C-20 12.34 -20 11.68 -20 11 C-18.68 11 -17.36 11 -16 11 C-16 10.34 -16 9.68 -16 9 C-14.68 9 -13.36 9 -12 9 C-12 8.01 -12 7.02 -12 6 C-10.68 6 -9.36 6 -8 6 C-8 5.34 -8 4.68 -8 4 C-6.68 4 -5.36 4 -4 4 C-4 3.34 -4 2.68 -4 2 C-2.68 2 -1.36 2 0 2 C0 1.34 0 0.68 0 0 Z " fill="#212526" transform="translate(79,113)"/>
<path d="M0 0 C2.64 0 5.28 0 8 0 C8 0.66 8 1.32 8 2 C9.32 2 10.64 2 12 2 C12 2.66 12 3.32 12 4 C10.68 4 9.36 4 8 4 C8 4.66 8 5.32 8 6 C6.68 6 5.36 6 4 6 C4 7.32 4 8.64 4 10 C0.04 10 -3.92 10 -8 10 C-8 8.02 -8 6.04 -8 4 C-6.68 4 -5.36 4 -4 4 C-4 3.34 -4 2.68 -4 2 C-2.68 2 -1.36 2 0 2 C0 1.34 0 0.68 0 0 Z " fill="#454B4E" transform="translate(63,126)"/>
<path d="M0 0 C2.64 0 5.28 0 8 0 C8 0.66 8 1.32 8 2 C6.68 2 5.36 2 4 2 C4 2.66 4 3.32 4 4 C2.68 4 1.36 4 0 4 C0 4.66 0 5.32 0 6 C-1.32 6 -2.64 6 -4 6 C-4 6.66 -4 7.32 -4 8 C-5.32 8 -6.64 8 -8 8 C-8 8.66 -8 9.32 -8 10 C-9.65 10 -11.3 10 -13 10 C-13 10.66 -13 11.32 -13 12 C-14.32 12 -15.64 12 -17 12 C-17 12.66 -17 13.32 -17 14 C-18.32 14 -19.64 14 -21 14 C-21 14.66 -21 15.32 -21 16 C-22.32 16 -23.64 16 -25 16 C-25 14.68 -25 13.36 -25 12 C-23.68 12 -22.36 12 -21 12 C-21 11.34 -21 10.68 -21 10 C-19.68 10 -18.36 10 -17 10 C-17 9.34 -17 8.68 -17 8 C-16.34 8 -15.68 8 -15 8 C-15 7.34 -15 6.68 -15 6 C-12.69 6 -10.38 6 -8 6 C-8 5.34 -8 4.68 -8 4 C-6.68 4 -5.36 4 -4 4 C-4 3.34 -4 2.68 -4 2 C-2.68 2 -1.36 2 0 2 C0 1.34 0 0.68 0 0 Z " fill="#141717" transform="translate(88,91)"/>
<path d="M0 0 C1.65 0 3.3 0 5 0 C5 0.66 5 1.32 5 2 C3.68 2 2.36 2 1 2 C1 2.99 1 3.98 1 5 C-0.32 5 -1.64 5 -3 5 C-3 5.66 -3 6.32 -3 7 C-11.42857143 10.28571429 -11.42857143 10.28571429 -16 11 C-16 11.66 -16 12.32 -16 13 C-17.32 13 -18.64 13 -20 13 C-20 13.66 -20 14.32 -20 15 C-21.32 15 -22.64 15 -24 15 C-24 15.66 -24 16.32 -24 17 C-25.32 17 -26.64 17 -28 17 C-28 17.66 -28 18.32 -28 19 C-29.32 19 -30.64 19 -32 19 C-32 19.66 -32 20.32 -32 21 C-33.32 21 -34.64 21 -36 21 C-36 20.01 -36 19.02 -36 18 C-34.68 18 -33.36 18 -32 18 C-32 17.34 -32 16.68 -32 16 C-30.68 16 -29.36 16 -28 16 C-28 15.34 -28 14.68 -28 14 C-26.68 14 -25.36 14 -24 14 C-24 13.34 -24 12.68 -24 12 C-22.68 12 -21.36 12 -20 12 C-20 11.34 -20 10.68 -20 10 C-18.68 10 -17.36 10 -16 10 C-16 9.34 -16 8.68 -16 8 C-14.68 8 -13.36 8 -12 8 C-12 7.34 -12 6.68 -12 6 C-10.68 6 -9.36 6 -8 6 C-8 5.34 -8 4.68 -8 4 C-6.68 4 -5.36 4 -4 4 C-4 3.34 -4 2.68 -4 2 C-2.68 2 -1.36 2 0 2 C0 1.34 0 0.68 0 0 Z " fill="#292C2E" transform="translate(81,105)"/>
<path d="M0 0 C0.66 0 1.32 0 2 0 C2 18.48 2 36.96 2 56 C2.66 56 3.32 56 4 56 C4 56.66 4 57.32 4 58 C2.68 58 1.36 58 0 58 C0 38.86 0 19.72 0 0 Z " fill="#000000" transform="translate(20,74)"/>
<path d="M0 0 C1.32 0 2.64 0 4 0 C4 0.66 4 1.32 4 2 C5.32 2 6.64 2 8 2 C8 3.32 8 4.64 8 6 C6.68 6 5.36 6 4 6 C4 6.66 4 7.32 4 8 C2.68 8 1.36 8 0 8 C0 8.66 0 9.32 0 10 C-1.32 10 -2.64 10 -4 10 C-4 10.66 -4 11.32 -4 12 C-5.32 12 -6.64 12 -8 12 C-8 11.34 -8 10.68 -8 10 C-9.32 10 -10.64 10 -12 10 C-12 8.68 -12 7.36 -12 6 C-10.68 6 -9.36 6 -8 6 C-8 5.34 -8 4.68 -8 4 C-6.68 4 -5.36 4 -4 4 C-4 4.66 -4 5.32 -4 6 C-2.68 6 -1.36 6 0 6 C0 5.01 0 4.02 0 3 C-1.32 2.67 -2.64 2.34 -4 2 C-2.68 2 -1.36 2 0 2 C0 1.34 0 0.68 0 0 Z " fill="#5A6164" transform="translate(100,118)"/>
<path d="M0 0 C1.32 0 2.64 0 4 0 C4 0.66 4 1.32 4 2 C3.34 2 2.68 2 2 2 C2 3.32 2 4.64 2 6 C1.278125 5.938125 0.55625 5.87625 -0.1875 5.8125 C-3.54840793 6.03656053 -5.16657107 7.25635143 -8 9 C-9.32 9 -10.64 9 -12 9 C-12 9.66 -12 10.32 -12 11 C-13.32 11 -14.64 11 -16 11 C-16 11.66 -16 12.32 -16 13 C-17.32 13 -18.64 13 -20 13 C-20 13.66 -20 14.32 -20 15 C-21.32 15 -22.64 15 -24 15 C-24 15.66 -24 16.32 -24 17 C-25.32 17 -26.64 17 -28 17 C-28 17.66 -28 18.32 -28 19 C-29.32 19 -30.64 19 -32 19 C-32 18.01 -32 17.02 -32 16 C-31.01 16 -30.02 16 -29 16 C-29 15.34 -29 14.68 -29 14 C-27.35 14 -25.7 14 -24 14 C-24 13.34 -24 12.68 -24 12 C-22.68 12 -21.36 12 -20 12 C-20 11.34 -20 10.68 -20 10 C-18.68 10 -17.36 10 -16 10 C-16 9.34 -16 8.68 -16 8 C-14.68 8 -13.36 8 -12 8 C-12 7.34 -12 6.68 -12 6 C-10.68 6 -9.36 6 -8 6 C-8 5.34 -8 4.68 -8 4 C-6.68 4 -5.36 4 -4 4 C-4 3.34 -4 2.68 -4 2 C-2.68 2 -1.36 2 0 2 C0 1.34 0 0.68 0 0 Z " fill="#161819" transform="translate(71,60)"/>
<path d="M0 0 C1.32 0 2.64 0 4 0 C4 0.66 4 1.32 4 2 C3.01 2 2.02 2 1 2 C1 2.66 1 3.32 1 4 C2.32 4 3.64 4 5 4 C5 4.66 5 5.32 5 6 C5.99 6 6.98 6 8 6 C8 5.34 8 4.68 8 4 C9.65 4 11.3 4 13 4 C13 4.66 13 5.32 13 6 C11.68 6 10.36 6 9 6 C9 6.66 9 7.32 9 8 C10.32 8 11.64 8 13 8 C13 8.66 13 9.32 13 10 C14.32 10 15.64 10 17 10 C17 10.66 17 11.32 17 12 C18.32 12 19.64 12 21 12 C21 12.99 21 13.98 21 15 C19.68 15 18.36 15 17 15 C17 14.34 17 13.68 17 13 C14.36 13.33 11.72 13.66 9 14 C8.67 12.02 8.34 10.04 8 8 C7.01 8 6.02 8 5 8 C5 8.66 5 9.32 5 10 C3.68 10 2.36 10 1 10 C1 9.34 1 8.68 1 8 C1.99 8 2.98 8 4 8 C4 7.34 4 6.68 4 6 C2.68 6 1.36 6 0 6 C0 5.34 0 4.68 0 4 C-1.32 4 -2.64 4 -4 4 C-4 3.34 -4 2.68 -4 2 C-2.68 2 -1.36 2 0 2 C0 1.34 0 0.68 0 0 Z " fill="#787E83" transform="translate(112,101)"/>
<path d="M0 0 C1.32 0 2.64 0 4 0 C4 0.99 4 1.98 4 3 C2.75539217 3.67667998 1.50403104 4.34094719 0.25 5 C-0.44609375 5.37125 -1.1421875 5.7425 -1.859375 6.125 C-4 7 -4 7 -8 7 C-8 7.66 -8 8.32 -8 9 C-9.32 9 -10.64 9 -12 9 C-12 9.66 -12 10.32 -12 11 C-13.32 11 -14.64 11 -16 11 C-16 11.66 -16 12.32 -16 13 C-17.32 13 -18.64 13 -20 13 C-20 13.66 -20 14.32 -20 15 C-20.66 15 -21.32 15 -22 15 C-22 16.98 -22 18.96 -22 21 C-22.66 21 -23.32 21 -24 21 C-24 18.03 -24 15.06 -24 12 C-22.68 12 -21.36 12 -20 12 C-20 11.34 -20 10.68 -20 10 C-18.68 10 -17.36 10 -16 10 C-16 9.34 -16 8.68 -16 8 C-14.68 8 -13.36 8 -12 8 C-12 7.34 -12 6.68 -12 6 C-10.68 6 -9.36 6 -8 6 C-8 5.34 -8 4.68 -8 4 C-6.68 4 -5.36 4 -4 4 C-4 3.34 -4 2.68 -4 2 C-2.68 2 -1.36 2 0 2 C0 1.34 0 0.68 0 0 Z " fill="#888E94" transform="translate(114,150)"/>
<path d="M0 0 C0.33 0.66 0.66 1.32 1 2 C2.32 2 3.64 2 5 2 C5 2.66 5 3.32 5 4 C4.34 4 3.68 4 3 4 C3 5.32 3 6.64 3 8 C2.01 8 1.02 8 0 8 C0 9.32 0 10.64 0 12 C-0.66 12 -1.32 12 -2 12 C-2 13.32 -2 14.64 -2 16 C-2.66 16 -3.32 16 -4 16 C-4 17.32 -4 18.64 -4 20 C-4.639375 20.268125 -5.27875 20.53625 -5.9375 20.8125 C-8.33131686 21.88667752 -8.33131686 21.88667752 -9 25 C-9.99 24.67 -10.98 24.34 -12 24 C-11.34 24 -10.68 24 -10 24 C-10 22.68 -10 21.36 -10 20 C-9.34 20 -8.68 20 -8 20 C-8 18.68 -8 17.36 -8 16 C-7.34 16 -6.68 16 -6 16 C-6 14.68 -6 13.36 -6 12 C-5.34 12 -4.68 12 -4 12 C-4 10.68 -4 9.36 -4 8 C-3.34 8 -2.68 8 -2 8 C-2 6.68 -2 5.36 -2 4 C-1.34 4 -0.68 4 0 4 C0 2.68 0 1.36 0 0 Z " fill="#6A6F6F" transform="translate(75,58)"/>
<path d="M0 0 C0 1.65 0 3.3 0 5 C-0.66 5 -1.32 5 -2 5 C-2 6.32 -2 7.64 -2 9 C-2.66 9 -3.32 9 -4 9 C-4 9.66 -4 10.32 -4 11 C-4.66 11 -5.32 11 -6 11 C-6 12.32 -6 13.64 -6 15 C-5.34 15 -4.68 15 -4 15 C-4 16.32 -4 17.64 -4 19 C-5.32 19 -6.64 19 -8 19 C-8 19.66 -8 20.32 -8 21 C-9.32 21 -10.64 21 -12 21 C-12 19.68 -12 18.36 -12 17 C-11.34 17 -10.68 17 -10 17 C-10 15.68 -10 14.36 -10 13 C-9.34 13 -8.68 13 -8 13 C-8 11.68 -8 10.36 -8 9 C-7.34 9 -6.68 9 -6 9 C-6 7.68 -6 6.36 -6 5 C-5.34 5 -4.68 5 -4 5 C-4 3.68 -4 2.36 -4 1 C-1 0 -1 0 0 0 Z " fill="#2D3333" transform="translate(67,90)"/>
<path d="M0 0 C0 0.66 0 1.32 0 2 C1.32 2.33 2.64 2.66 4 3 C2.68 3 1.36 3 0 3 C0 3.66 0 4.32 0 5 C-3.96 4.67 -7.92 4.34 -12 4 C-12 4.66 -12 5.32 -12 6 C-13.32 6 -14.64 6 -16 6 C-16 6.66 -16 7.32 -16 8 C-15.01 8.33 -14.02 8.66 -13 9 C-15.31 8.67 -17.62 8.34 -20 8 C-20.33 8.66 -20.66 9.32 -21 10 C-21 9.34 -21 8.68 -21 8 C-21.99 7.67 -22.98 7.34 -24 7 C-21.35261084 5.5393715 -20.10551666 5 -17 5 C-17 4.34 -17 3.68 -17 3 C-11.47911677 0.41208598 -6.06447895 0 0 0 Z " fill="#6D7378" transform="translate(96,114)"/>
<path d="M0 0 C1.32 0 2.64 0 4 0 C4 0.66 4 1.32 4 2 C5.32 2 6.64 2 8 2 C8 2.66 8 3.32 8 4 C9.32 4 10.64 4 12 4 C12 4.66 12 5.32 12 6 C13.32 6 14.64 6 16 6 C16 6.66 16 7.32 16 8 C17.32 8 18.64 8 20 8 C20 8.66 20 9.32 20 10 C21.32 10 22.64 10 24 10 C24 10.99 24 11.98 24 13 C22.68 13 21.36 13 20 13 C20 12.34 20 11.68 20 11 C18.68 11 17.36 11 16 11 C16 10.34 16 9.68 16 9 C14.68 9 13.36 9 12 9 C12 8.34 12 7.68 12 7 C10.68 7 9.36 7 8 7 C8 6.34 8 5.68 8 5 C6.68 5 5.36 5 4 5 C4 4.34 4 3.68 4 3 C2.68 3 1.36 3 0 3 C0 2.01 0 1.02 0 0 Z " fill="#0F1010" transform="translate(49,150)"/>
<path d="M0 0 C0.33 0.66 0.66 1.32 1 2 C1.99 2 2.98 2 4 2 C4.33 1.34 4.66 0.68 5 0 C5 0.66 5 1.32 5 2 C6.32 2.33 7.64 2.66 9 3 C9 4.32 9 5.64 9 7 C7.35 7 5.7 7 4 7 C4 6.34 4 5.68 4 5 C3.01 5 2.02 5 1 5 C0.67 5.66 0.34 6.32 0 7 C0 6.01 0 5.02 0 4 C-1.32 4 -2.64 4 -4 4 C-4 4.66 -4 5.32 -4 6 C-5.32 6 -6.64 6 -8 6 C-8 5.34 -8 4.68 -8 4 C-9.32 3.67 -10.64 3.34 -12 3 C-10.68 3 -9.36 3 -8 3 C-8 2.34 -8 1.68 -8 1 C-5.36 1.33 -2.72 1.66 0 2 C0 1.34 0 0.68 0 0 Z " fill="#666D71" transform="translate(116,113)"/>
<path d="M0 0 C1.32 0 2.64 0 4 0 C4 0.66 4 1.32 4 2 C2.68 2 1.36 2 0 2 C0 2.66 0 3.32 0 4 C-1.32 4 -2.64 4 -4 4 C-4 4.99 -4 5.98 -4 7 C-5.32 7 -6.64 7 -8 7 C-8 7.66 -8 8.32 -8 9 C-10.64 9.33 -13.28 9.66 -16 10 C-15.01 8.02 -14.02 6.04 -13 4 C-11.68 4 -10.36 4 -9 4 C-9 3.34 -9 2.68 -9 2 C-6.94921875 1.77213542 -4.8984375 1.54427083 -2.84765625 1.31640625 C-0.98859771 1.18113386 -0.98859771 1.18113386 0 0 Z " fill="#1C1F20" transform="translate(51,111)"/>
<path d="M0 0 C1.65 0 3.3 0 5 0 C5 0.66 5 1.32 5 2 C3.68 2 2.36 2 1 2 C1 2.66 1 3.32 1 4 C-0.32 4 -1.64 4 -3 4 C-3 4.66 -3 5.32 -3 6 C-4.32 6 -5.64 6 -7 6 C-7 6.66 -7 7.32 -7 8 C-7.99 8 -8.98 8 -10 8 C-10 9.98 -10 11.96 -10 14 C-9.34 14 -8.68 14 -8 14 C-8 14.66 -8 15.32 -8 16 C-9.32 16 -10.64 16 -12 16 C-12 13.36 -12 10.72 -12 8 C-13.32 8 -14.64 8 -16 8 C-16 7.34 -16 6.68 -16 6 C-13.36 6 -10.72 6 -8 6 C-8 5.34 -8 4.68 -8 4 C-6.68 4 -5.36 4 -4 4 C-4 3.34 -4 2.68 -4 2 C-2.68 2 -1.36 2 0 2 C0 1.34 0 0.68 0 0 Z " fill="#111213" transform="translate(40,126)"/>
<path d="M0 0 C1.32 0 2.64 0 4 0 C4 0.99 4 1.98 4 3 C2.68 3 1.36 3 0 3 C0 3.66 0 4.32 0 5 C-1.32 5 -2.64 5 -4 5 C-4 5.66 -4 6.32 -4 7 C-5.32 7 -6.64 7 -8 7 C-8 7.66 -8 8.32 -8 9 C-9.32 9 -10.64 9 -12 9 C-12 9.66 -12 10.32 -12 11 C-13.65 11 -15.3 11 -17 11 C-17 10.01 -17 9.02 -17 8 C-15.68 8 -14.36 8 -13 8 C-13 7.34 -13 6.68 -13 6 C-4.57142857 2.71428571 -4.57142857 2.71428571 0 2 C0 1.34 0 0.68 0 0 Z " fill="#222627" transform="translate(129,117)"/>
<path d="M0 0 C2.64 0 5.28 0 8 0 C8 0.66 8 1.32 8 2 C9.32 2 10.64 2 12 2 C12 2.66 12 3.32 12 4 C10.68 4 9.36 4 8 4 C8 4.66 8 5.32 8 6 C5.36 6 2.72 6 0 6 C0 5.34 0 4.68 0 4 C-1.32 4 -2.64 4 -4 4 C-4 3.34 -4 2.68 -4 2 C-2.68 2 -1.36 2 0 2 C0 1.34 0 0.68 0 0 Z " fill="#596063" transform="translate(63,126)"/>
<path d="M0 0 C0 0.66 0 1.32 0 2 C-1.32 2 -2.64 2 -4 2 C-4 2.66 -4 3.32 -4 4 C-5.32 4 -6.64 4 -8 4 C-8 4.66 -8 5.32 -8 6 C-9.32 6 -10.64 6 -12 6 C-12 6.66 -12 7.32 -12 8 C-13.32 8 -14.64 8 -16 8 C-16 8.66 -16 9.32 -16 10 C-17.32 10 -18.64 10 -20 10 C-20 10.66 -20 11.32 -20 12 C-21.65 12 -23.3 12 -25 12 C-25 11.34 -25 10.68 -25 10 C-23.68 10 -22.36 10 -21 10 C-21 9.34 -21 8.68 -21 8 C-19.68 8 -18.36 8 -17 8 C-17 7.34 -17 6.68 -17 6 C-15.68 6 -14.36 6 -13 6 C-12.67 5.01 -12.34 4.02 -12 3 C-10.29296875 2.05078125 -10.29296875 2.05078125 -8.1875 1.3125 C-7.50042969 1.06113281 -6.81335938 0.80976562 -6.10546875 0.55078125 C-4 0 -4 0 0 0 Z " fill="#8B9097" transform="translate(92,44)"/>
<path d="M0 0 C1.32 0 2.64 0 4 0 C4 0.66 4 1.32 4 2 C1.04518508 4.74375671 0.22528092 5 -4 5 C-4 5.66 -4 6.32 -4 7 C-5.32 7 -6.64 7 -8 7 C-8 7.66 -8 8.32 -8 9 C-9.32 9 -10.64 9 -12 9 C-12 9.66 -12 10.32 -12 11 C-13.32 11 -14.64 11 -16 11 C-16 10.01 -16 9.02 -16 8 C-14.68 8 -13.36 8 -12 8 C-12 7.34 -12 6.68 -12 6 C-10.68 6 -9.36 6 -8 6 C-8 5.34 -8 4.68 -8 4 C-6.68 4 -5.36 4 -4 4 C-4 3.34 -4 2.68 -4 2 C-2.68 2 -1.36 2 0 2 C0 1.34 0 0.68 0 0 Z " fill="#131314" transform="translate(143,144)"/>
<path d="M0 0 C1.32 0 2.64 0 4 0 C4 1.98 4 3.96 4 6 C3.34 6 2.68 6 2 6 C2 7.32 2 8.64 2 10 C1.34 10 0.68 10 0 10 C-0.33 11.32 -0.66 12.64 -1 14 C-1.33 11.36 -1.66 8.72 -2 6 C-1.34 6 -0.68 6 0 6 C0 5.34 0 4.68 0 4 C-1.32 4 -2.64 4 -4 4 C-4 3.34 -4 2.68 -4 2 C-2.68 2 -1.36 2 0 2 C0 1.34 0 0.68 0 0 Z M-5 10 C-4.01 10.33 -3.02 10.66 -2 11 C-2.99 11.99 -3.98 12.98 -5 14 C-5 12.68 -5 11.36 -5 10 Z " fill="#303636" transform="translate(80,56)"/>
<path d="M0 0 C1.65 0 3.3 0 5 0 C3.68 0.33 2.36 0.66 1 1 C0.979375 1.763125 0.95875 2.52625 0.9375 3.3125 C0.628125 4.199375 0.31875 5.08625 0 6 C-3.5 7.6875 -3.5 7.6875 -7 9 C-7.33 9.66 -7.66 10.32 -8 11 C-9.32 11 -10.64 11 -12 11 C-12 9.35 -12 7.7 -12 6 C-10.68 6 -9.36 6 -8 6 C-8 5.34 -8 4.68 -8 4 C-6.68 4 -5.36 4 -4 4 C-4 3.34 -4 2.68 -4 2 C-2.68 2 -1.36 2 0 2 C0 1.34 0 0.68 0 0 Z " fill="#313638" transform="translate(79,113)"/>
<path d="M0 0 C2.64 0 5.28 0 8 0 C8 1.98 8 3.96 8 6 C5.36 6 2.72 6 0 6 C0 5.34 0 4.68 0 4 C-1.32 4 -2.64 4 -4 4 C-4 3.34 -4 2.68 -4 2 C-2.68 2 -1.36 2 0 2 C0 1.34 0 0.68 0 0 Z " fill="#3C4244" transform="translate(84,134)"/>
<path d="M0 0 C1.32 0 2.64 0 4 0 C4 0.66 4 1.32 4 2 C5.32 2 6.64 2 8 2 C8 2.66 8 3.32 8 4 C6.68 4 5.36 4 4 4 C4 4.66 4 5.32 4 6 C1.36 6 -1.28 6 -4 6 C-4 5.34 -4 4.68 -4 4 C-5.32 4 -6.64 4 -8 4 C-8 3.34 -8 2.68 -8 2 C-5.36 2 -2.72 2 0 2 C0 1.34 0 0.68 0 0 Z " fill="#282E2F" transform="translate(67,134)"/>
<path d="M0 0 C2.64 0 5.28 0 8 0 C8 0.66 8 1.32 8 2 C6.68 2 5.36 2 4 2 C4 2.66 4 3.32 4 4 C2.68 4 1.36 4 0 4 C0 4.66 0 5.32 0 6 C-4.1205746 7.99785435 -7.45194365 8.17835515 -12 8 C-10.68 7.67 -9.36 7.34 -8 7 C-8 6.34 -8 5.68 -8 5 C-6.68 5 -5.36 5 -4 5 C-4 4.01 -4 3.02 -4 2 C-2.68 2 -1.36 2 0 2 C0 1.34 0 0.68 0 0 Z " fill="#262A2B" transform="translate(88,109)"/>
<path d="M0 0 C2.64 0 5.28 0 8 0 C6.68 0.33 5.36 0.66 4 1 C4 1.66 4 2.32 4 3 C2.68 3 1.36 3 0 3 C0 3.66 0 4.32 0 5 C-1.32 5 -2.64 5 -4 5 C-4 5.66 -4 6.32 -4 7 C-5.32 7 -6.64 7 -8 7 C-8 7.66 -8 8.32 -8 9 C-9.32 9 -10.64 9 -12 9 C-12 8.01 -12 7.02 -12 6 C-11.01 6 -10.02 6 -9 6 C-9 5.34 -9 4.68 -9 4 C-7.35 4 -5.7 4 -4 4 C-4 3.34 -4 2.68 -4 2 C-2.68 2 -1.36 2 0 2 C0 1.34 0 0.68 0 0 Z " fill="#1B1E1E" transform="translate(51,70)"/>
<path d="M0 0 C1.32 0 2.64 0 4 0 C4 0.66 4 1.32 4 2 C5.32 2 6.64 2 8 2 C8 3.32 8 4.64 8 6 C6.68 6 5.36 6 4 6 C4 6.66 4 7.32 4 8 C2.68 8 1.36 8 0 8 C0 6.35 0 4.7 0 3 C-1.32 2.67 -2.64 2.34 -4 2 C-2.68 2 -1.36 2 0 2 C0 1.34 0 0.68 0 0 Z " fill="#535A5D" transform="translate(100,118)"/>
<path d="M0 0 C2.64 0 5.28 0 8 0 C8 0.66 8 1.32 8 2 C9.32 2 10.64 2 12 2 C12 2.66 12 3.32 12 4 C10.68 4 9.36 4 8 4 C8 4.66 8 5.32 8 6 C6.68 6 5.36 6 4 6 C4 5.34 4 4.68 4 4 C2.68 4 1.36 4 0 4 C0 2.68 0 1.36 0 0 Z " fill="#4B5254" transform="translate(96,109)"/>
<path d="M0 0 C0 0.66 0 1.32 0 2 C-1.32 2 -2.64 2 -4 2 C-4 2.66 -4 3.32 -4 4 C-5.32 4 -6.64 4 -8 4 C-8 4.66 -8 5.32 -8 6 C-8.66 6 -9.32 6 -10 6 C-10 7.98 -10 9.96 -10 12 C-10.66 12 -11.32 12 -12 12 C-12 9.03 -12 6.06 -12 3 C-10.68 3 -9.36 3 -8 3 C-8 2.34 -8 1.68 -8 1 C-5.10765685 0.17361624 -3.11257569 0 0 0 Z " fill="#93989E" transform="translate(102,159)"/>
<path d="M0 0 C1.32 0 2.64 0 4 0 C4.33 1.32 4.66 2.64 5 4 C7.64 4 10.28 4 13 4 C13 4.66 13 5.32 13 6 C8.71 6 4.42 6 0 6 C0 5.34 0 4.68 0 4 C-1.32 4 -2.64 4 -4 4 C-4 3.34 -4 2.68 -4 2 C-2.68 2 -1.36 2 0 2 C0 1.34 0 0.68 0 0 Z " fill="#73797E" transform="translate(71,122)"/>
<path d="M0 0 C0 0.66 0 1.32 0 2 C-1.32 2 -2.64 2 -4 2 C-4 2.66 -4 3.32 -4 4 C-5.32 4 -6.64 4 -8 4 C-8 4.66 -8 5.32 -8 6 C-9.32 6 -10.64 6 -12 6 C-12 6.66 -12 7.32 -12 8 C-13.32 8 -14.64 8 -16 8 C-16 7.01 -16 6.02 -16 5 C-14.68 5 -13.36 5 -12 5 C-12 4.34 -12 3.68 -12 3 C-10.68 3 -9.36 3 -8 3 C-8 2.34 -8 1.68 -8 1 C-5.10765685 0.17361624 -3.11257569 0 0 0 Z " fill="#262829" transform="translate(61,118)"/>
<path d="M0 0 C0.99 0 1.98 0 3 0 C3.33 0.66 3.66 1.32 4 2 C6.01669827 3.13350534 6.01669827 3.13350534 8 4 C8 4.66 8 5.32 8 6 C5.36 6 2.72 6 0 6 C0 5.34 0 4.68 0 4 C-1.32 4 -2.64 4 -4 4 C-4 3.34 -4 2.68 -4 2 C-2.68 2 -1.36 2 0 2 C0 1.34 0 0.68 0 0 Z " fill="#484F51" transform="translate(125,105)"/>
<path d="M0 0 C2.64 0 5.28 0 8 0 C8 0.66 8 1.32 8 2 C6.68 2 5.36 2 4 2 C4 2.66 4 3.32 4 4 C2.68 4 1.36 4 0 4 C0 4.66 0 5.32 0 6 C-1.32 6 -2.64 6 -4 6 C-4 4.68 -4 3.36 -4 2 C-2.68 2 -1.36 2 0 2 C0 1.34 0 0.68 0 0 Z " fill="#131616" transform="translate(67,101)"/>
<path d="M0 0 C1.32 0.33 2.64 0.66 4 1 C3.34 1 2.68 1 2 1 C2 1.99 2 2.98 2 4 C0.68 4 -0.64 4 -2 4 C-2 4.99 -2 5.98 -2 7 C-6.625 9.125 -6.625 9.125 -10 8 C-9.34 7.01 -8.68 6.02 -8 5 C-6.68 5 -5.36 5 -4 5 C-4 4.01 -4 3.02 -4 2 C-2.68 2 -1.36 2 0 2 C0 1.34 0 0.68 0 0 Z " fill="#6F757A" transform="translate(94,37)"/>
<path d="M0 0 C0.99 0 1.98 0 3 0 C3 0.66 3 1.32 3 2 C4.65 2 6.3 2 8 2 C8 2.66 8 3.32 8 4 C6.35 4 4.7 4 3 4 C3 4.66 3 5.32 3 6 C2.01 6 1.02 6 0 6 C0 5.34 0 4.68 0 4 C-1.32 4 -2.64 4 -4 4 C-4 3.34 -4 2.68 -4 2 C-2.68 2 -1.36 2 0 2 C0 1.34 0 0.68 0 0 Z " fill="#3D4446" transform="translate(76,130)"/>
<path d="M0 0 C1.32 0 2.64 0 4 0 C4 0.99 4 1.98 4 3 C-0.92984325 5.03993514 -4.57960425 6.40652968 -10 6 C-9.67 5.34 -9.34 4.68 -9 4 C-7.35 4 -5.7 4 -4 4 C-4 3.34 -4 2.68 -4 2 C-2.68 2 -1.36 2 0 2 C0 1.34 0 0.68 0 0 Z M-6 6 C-4 7 -4 7 -4 7 Z " fill="#888E94" transform="translate(34,70)"/>
<path d="M0 0 C1.32 0 2.64 0 4 0 C4 0.99 4 1.98 4 3 C2.68 3 1.36 3 0 3 C0 3.66 0 4.32 0 5 C-2.64 5.33 -5.28 5.66 -8 6 C-8 5.34 -8 4.68 -8 4 C-4.91190305 2.23537317 -3.76687864 2 0 2 C0 1.34 0 0.68 0 0 Z " fill="#1C1E1F" transform="translate(129,117)"/>
<path d="M0 0 C2.64 0 5.28 0 8 0 C4.93882432 2.62386487 4.26826873 3 0 3 C0 3.66 0 4.32 0 5 C-2.64 5 -5.28 5 -8 5 C-6.68 4.67 -5.36 4.34 -4 4 C-4 3.34 -4 2.68 -4 2 C-2.68 2 -1.36 2 0 2 C0 1.34 0 0.68 0 0 Z " fill="#303335" transform="translate(65,113)"/>
<path d="M0 0 C1.65 0 3.3 0 5 0 C5 0.66 5 1.32 5 2 C5.99 2 6.98 2 8 2 C8 2.66 8 3.32 8 4 C4.37 4 0.74 4 -3 4 C-3 3.34 -3 2.68 -3 2 C-2.01 2 -1.02 2 0 2 C0 1.34 0 0.68 0 0 Z " fill="#151718" transform="translate(112,97)"/>
<path d="M0 0 C2.31 0 4.62 0 7 0 C7 1.32 7 2.64 7 4 C4.03 4 1.06 4 -2 4 C-2 3.34 -2 2.68 -2 2 C-1.34 2 -0.68 2 0 2 C0 1.34 0 0.68 0 0 Z " fill="#232727" transform="translate(73,97)"/>
<path d="M0 0 C0 0.66 0 1.32 0 2 C-1.32 2 -2.64 2 -4 2 C-4 2.66 -4 3.32 -4 4 C-5.32 4 -6.64 4 -8 4 C-8 4.66 -8 5.32 -8 6 C-9.32 6 -10.64 6 -12 6 C-12 5.01 -12 4.02 -12 3 C-10.68 3 -9.36 3 -8 3 C-8 2.34 -8 1.68 -8 1 C-5.10765685 0.17361624 -3.11257569 0 0 0 Z " fill="#8A9096" transform="translate(104,38)"/>
<path d="M0 0 C1.32 0 2.64 0 4 0 C4 0.66 4 1.32 4 2 C5.32 2 6.64 2 8 2 C8 2.66 8 3.32 8 4 C9.32 4 10.64 4 12 4 C12 4.66 12 5.32 12 6 C9.36 5.67 6.72 5.34 4 5 C3.67 4.01 3.34 3.02 3 2 C2.01 2 1.02 2 0 2 C0 1.34 0 0.68 0 0 Z " fill="#131516" transform="translate(125,103)"/>
<path d="M0 0 C1.32 0 2.64 0 4 0 C4 0.99 4 1.98 4 3 C3.01 3 2.02 3 1 3 C1 3.66 1 4.32 1 5 C-0.65 5 -2.3 5 -4 5 C-4 4.34 -4 3.68 -4 3 C-5.32 2.67 -6.64 2.34 -8 2 C-5.36 2 -2.72 2 0 2 C0 1.34 0 0.68 0 0 Z " fill="#6F757A" transform="translate(112,117)"/>
<path d="M0 0 C1.32 0.33 2.64 0.66 4 1 C3.01 1.495 3.01 1.495 2 2 C2 2.66 2 3.32 2 4 C0.68 4 -0.64 4 -2 4 C-2 4.66 -2 5.32 -2 6 C-3.98 6.33 -5.96 6.66 -8 7 C-8 6.01 -8 5.02 -8 4 C-6.68 4 -5.36 4 -4 4 C-4 3.34 -4 2.68 -4 2 C-2.68 2 -1.36 2 0 2 C0 1.34 0 0.68 0 0 Z " fill="#656B6F" transform="translate(32,68)"/>
<path d="M0 0 C1.32 0 2.64 0 4 0 C4 0.66 4 1.32 4 2 C3.34 2 2.68 2 2 2 C2 3.32 2 4.64 2 6 C0.02 6 -1.96 6 -4 6 C-4 4.68 -4 3.36 -4 2 C-2.68 2 -1.36 2 0 2 C0 1.34 0 0.68 0 0 Z " fill="#1C1F20" transform="translate(71,60)"/>
<path d="M0 0 C1.32 0 2.64 0 4 0 C4 3.3 4 6.6 4 10 C2.68 10 1.36 10 0 10 C0 9.34 0 8.68 0 8 C0.66 8 1.32 8 2 8 C2 6.02 2 4.04 2 2 C1.34 2 0.68 2 0 2 C0 1.34 0 0.68 0 0 Z " fill="#040404" transform="translate(176,120)"/>
<path d="M0 0 C1.32 0 2.64 0 4 0 C4 0.66 4 1.32 4 2 C5.32 2.33 6.64 2.66 8 3 C6.68 3 5.36 3 4 3 C4 3.66 4 4.32 4 5 C2.68 5 1.36 5 0 5 C0 4.34 0 3.68 0 3 C-1.32 2.67 -2.64 2.34 -4 2 C-2.68 2 -1.36 2 0 2 C0 1.34 0 0.68 0 0 Z " fill="#3A4243" transform="translate(84,118)"/>
<path d="M0 0 C1.32 0 2.64 0 4 0 C4 0.66 4 1.32 4 2 C5.32 2.33 6.64 2.66 8 3 C6.68 3 5.36 3 4 3 C4 3.66 4 4.32 4 5 C2.68 5 1.36 5 0 5 C0 4.34 0 3.68 0 3 C-1.32 2.67 -2.64 2.34 -4 2 C-2.68 2 -1.36 2 0 2 C0 1.34 0 0.68 0 0 Z " fill="#373F40" transform="translate(125,114)"/>
<path d="M0 0 C1.32 0 2.64 0 4 0 C4 0.66 4 1.32 4 2 C5.32 2.33 6.64 2.66 8 3 C6.68 3 5.36 3 4 3 C4 3.66 4 4.32 4 5 C2.68 5 1.36 5 0 5 C0 4.34 0 3.68 0 3 C-1.32 2.67 -2.64 2.34 -4 2 C-2.68 2 -1.36 2 0 2 C0 1.34 0 0.68 0 0 Z " fill="#3A4243" transform="translate(108,114)"/>
<path d="M0 0 C1.32 0 2.64 0 4 0 C4 0.66 4 1.32 4 2 C5.32 2.33 6.64 2.66 8 3 C6.68 3 5.36 3 4 3 C4 3.66 4 4.32 4 5 C2.68 5 1.36 5 0 5 C0 4.34 0 3.68 0 3 C-1.32 2.67 -2.64 2.34 -4 2 C-2.68 2 -1.36 2 0 2 C0 1.34 0 0.68 0 0 Z " fill="#384041" transform="translate(92,114)"/>
<path d="M0 0 C1.32 0 2.64 0 4 0 C4 0.66 4 1.32 4 2 C5.32 2 6.64 2 8 2 C8 2.66 8 3.32 8 4 C4.04 4 0.08 4 -4 4 C-4 3.34 -4 2.68 -4 2 C-2.68 2 -1.36 2 0 2 C0 1.34 0 0.68 0 0 Z " fill="#7B8186" transform="translate(92,111)"/>
<path d="M0 0 C0.99 0 1.98 0 3 0 C3.33 0.66 3.66 1.32 4 2 C4.99 2.66 5.98 3.32 7 4 C5.68 4 4.36 4 3 4 C3 4.66 3 5.32 3 6 C2.01 6 1.02 6 0 6 C0 5.34 0 4.68 0 4 C-1.32 3.67 -2.64 3.34 -4 3 C-3.01 2.67 -2.02 2.34 -1 2 C-0.67 1.34 -0.34 0.68 0 0 Z " fill="#3A4243" transform="translate(117,109)"/>
<path d="M0 0 C1.65 0 3.3 0 5 0 C3.68 0.33 2.36 0.66 1 1 C0.67 2.65 0.34 4.3 0 6 C-2.31 6.33 -4.62 6.66 -7 7 C-7 6.34 -7 5.68 -7 5 C-6.01 5 -5.02 5 -4 5 C-4 4.01 -4 3.02 -4 2 C-2.68 2 -1.36 2 0 2 C0 1.34 0 0.68 0 0 Z " fill="#2A2E30" transform="translate(79,113)"/>
<path d="M0 0 C1.32 0 2.64 0 4 0 C4 0.99 4 1.98 4 3 C-0.1205746 4.99785435 -3.45194365 5.17835515 -8 5 C-6.68 4.67 -5.36 4.34 -4 4 C-4 3.34 -4 2.68 -4 2 C-2.68 2 -1.36 2 0 2 C0 1.34 0 0.68 0 0 Z " fill="#1C2020" transform="translate(84,112)"/>
<path d="M0 0 C2.96175123 0.61277612 4.38058783 1.25372522 7 3 C4.79112053 4.34110539 3.54530581 5.06609767 0.9375 4.75 C-1 4 -1 4 -4 2 C-2.68 2 -1.36 2 0 2 C0 1.34 0 0.68 0 0 Z " fill="#394142" transform="translate(76,122)"/>
<path d="M0 0 C1.65 0 3.3 0 5 0 C5 0.99 5 1.98 5 3 C3.68 3 2.36 3 1 3 C1 3.66 1 4.32 1 5 C-0.32 5 -1.64 5 -3 5 C-3 4.01 -3 3.02 -3 2 C-2.01 2 -1.02 2 0 2 C0 1.34 0 0.68 0 0 Z " fill="#212425" transform="translate(42,74)"/>
<path d="M0 0 C2.64 0 5.28 0 8 0 C8 1.32 8 2.64 8 4 C6.68 4 5.36 4 4 4 C4 3.34 4 2.68 4 2 C2.68 2 1.36 2 0 2 C0 1.34 0 0.68 0 0 Z " fill="#191C1C" transform="translate(47,130)"/>
<path d="M0 0 C1.32 0 2.64 0 4 0 C4 1.32 4 2.64 4 4 C1.36 4 -1.28 4 -4 4 C-4 3.34 -4 2.68 -4 2 C-2.68 2 -1.36 2 0 2 C0 1.34 0 0.68 0 0 Z " fill="#181B1B" transform="translate(96,105)"/>
<path d="M0 0 C2.64 0 5.28 0 8 0 C8 0.66 8 1.32 8 2 C6.68 2 5.36 2 4 2 C4 2.66 4 3.32 4 4 C2.68 4 1.36 4 0 4 C0 2.68 0 1.36 0 0 Z " fill="#141617" transform="translate(100,85)"/>
<path d="M0 0 C1.32 0 2.64 0 4 0 C4 0.66 4 1.32 4 2 C2.02 2.33 0.04 2.66 -2 3 C-2 3.99 -2 4.98 -2 6 C-4.97 5.505 -4.97 5.505 -8 5 C-6.68 4.67 -5.36 4.34 -4 4 C-4 3.34 -4 2.68 -4 2 C-2.68 2 -1.36 2 0 2 C0 1.34 0 0.68 0 0 Z " fill="#606569" transform="translate(106,31)"/>
<path d="M0 0 C0.33 0.66 0.66 1.32 1 2 C2.32 2 3.64 2 5 2 C5 2.66 5 3.32 5 4 C4.34 4 3.68 4 3 4 C2.67 5.32 2.34 6.64 2 8 C1.67 7.01 1.34 6.02 1 5 C0.01 5.99 -0.98 6.98 -2 8 C-2 6.68 -2 5.36 -2 4 C-1.34 4 -0.68 4 0 4 C0 2.68 0 1.36 0 0 Z " fill="#5C6060" transform="translate(75,58)"/>
<path d="M0 0 C1.32 0 2.64 0 4 0 C4 0.66 4 1.32 4 2 C5.32 2 6.64 2 8 2 C8 2.66 8 3.32 8 4 C5.36 3.67 2.72 3.34 0 3 C0 2.01 0 1.02 0 0 Z " fill="#83888E" transform="translate(78,156)"/>
<path d="M0 0 C1.32 0 2.64 0 4 0 C4 0.66 4 1.32 4 2 C5.32 2 6.64 2 8 2 C8 2.66 8 3.32 8 4 C5.69 3.67 3.38 3.34 1 3 C0.67 2.01 0.34 1.02 0 0 Z " fill="#0D0D0E" transform="translate(41,146)"/>
<path d="M0 0 C1.32 0 2.64 0 4 0 C4 0.66 4 1.32 4 2 C5.32 2 6.64 2 8 2 C8 2.66 8 3.32 8 4 C5.36 3.67 2.72 3.34 0 3 C0 2.01 0 1.02 0 0 Z " fill="#141616" transform="translate(137,109)"/>
<path d="M0 0 C0.93065133 2.60582371 1.14917407 3.64198224 0.0625 6.25 C-0.4634375 7.11625 -0.4634375 7.11625 -1 8 C-1.625 5.125 -1.625 5.125 -2 2 C-1.34 1.34 -0.68 0.68 0 0 Z M-5 4 C-4.01 4.33 -3.02 4.66 -2 5 C-2.99 5.99 -3.98 6.98 -5 8 C-5 6.68 -5 5.36 -5 4 Z " fill="#424A4A" transform="translate(78,66)"/>
<path d="M0 0 C1.32 0 2.64 0 4 0 C4 0.66 4 1.32 4 2 C0.77208445 4.1519437 -0.28400809 4.20086443 -4 4 C-4 3.34 -4 2.68 -4 2 C-2.68 2 -1.36 2 0 2 C0 1.34 0 0.68 0 0 Z " fill="#0D0E0E" transform="translate(143,144)"/>
</svg>
